<?xml version="1.0" standalone="no"?>
<!DOCTYPE svg PUBLIC "-//W3C//DTD SVG 20010904//EN"
 "http://www.w3.org/TR/2001/REC-SVG-20010904/DTD/svg10.dtd">
<svg version="1.0" xmlns="http://www.w3.org/2000/svg"
 width="1024.000000pt" height="1024.000000pt" viewBox="0 0 1024.000000 1024.000000"
 preserveAspectRatio="xMidYMid meet">

<g transform="translate(0.000000,1024.000000) scale(0.100000,-0.100000)"
fill="#000000" stroke="none">
<path d="M1488 8924 c-8 -7 18 -122 47 -209 22 -66 46 -149 65 -223 12 -49 3
-72 -30 -72 -16 0 -137 53 -272 119 -555 270 -548 268 -564 246 -30 -41 6
-138 173 -470 69 -137 137 -263 150 -279 33 -40 25 -51 -35 -51 -29 1 -52 -3
-52 -7 0 -8 57 -120 117 -230 13 -23 34 -53 47 -67 26 -27 56 -138 56 -207 0
-46 146 -334 213 -418 27 -35 32 -50 37 -120 4 -63 12 -92 33 -132 36 -65 137
-199 188 -248 l40 -39 -2 -103 c-1 -56 2 -108 7 -116 50 -82 135 -184 198
-236 l76 -64 0 -103 c0 -57 4 -115 10 -129 16 -42 168 -193 219 -218 l46 -23
5 -85 c3 -47 10 -94 17 -105 19 -34 156 -161 193 -180 62 -31 70 -43 70 -106
0 -32 5 -69 11 -83 26 -56 203 -164 299 -182 25 -5 56 -27 106 -75 40 -38 80
-69 90 -69 11 0 42 -12 69 -26 59 -30 137 -56 232 -79 37 -9 91 -25 118 -35
28 -10 68 -23 90 -29 39 -12 145 -56 215 -91 31 -16 55 -17 220 -10 102 4 189
5 194 2 5 -3 5 -30 2 -61 -20 -160 -21 -145 15 -176 70 -58 250 -133 634 -261
212 -70 383 -129 381 -131 -5 -5 -140 26 -241 55 -175 50 -203 48 -316 -28
-83 -56 -271 -245 -337 -339 -57 -82 -64 -85 -28 -13 63 125 205 285 344 391
45 34 80 66 77 71 -3 4 -87 41 -187 81 l-181 72 -54 -28 c-64 -33 -182 -141
-254 -232 -69 -86 -167 -250 -239 -398 -72 -148 -234 -551 -283 -700 -93 -287
-168 -540 -172 -580 -6 -57 -55 -210 -111 -342 -24 -59 -43 -107 -42 -108 2
-1 13 -8 26 -14 26 -14 21 -28 -14 -41 -13 -5 -33 -24 -45 -42 -12 -19 -18
-24 -15 -12 3 11 0 29 -8 39 -35 48 -110 -42 -140 -169 -33 -140 -6 -165 174
-165 64 0 122 4 128 8 22 13 67 98 76 141 3 14 30 54 60 89 37 43 67 91 91
150 20 47 51 113 70 146 46 83 197 284 282 378 100 110 207 258 282 390 35 61
61 104 58 95 -21 -61 -74 -176 -112 -239 l-44 -74 42 -6 c23 -3 111 -40 196
-82 84 -42 160 -77 169 -77 9 0 45 -9 81 -19 98 -29 157 -41 196 -41 23 0 45
-9 67 -28 18 -15 58 -44 88 -64 74 -49 125 -103 147 -158 33 -81 147 -262 200
-315 28 -30 97 -88 152 -130 79 -59 106 -86 126 -124 13 -27 31 -51 40 -55 47
-18 189 7 214 38 13 16 -20 130 -46 158 -10 11 -31 27 -46 35 -23 11 -26 17
-17 28 9 11 1 30 -40 91 -28 43 -52 87 -54 98 -34 179 -34 235 -2 265 23 22
28 22 269 20 135 0 251 2 257 6 19 12 57 -21 334 -294 309 -303 306 -300 334
-363 23 -52 45 -68 96 -68 19 0 52 -9 73 -19 25 -12 70 -21 129 -25 l91 -6 56
45 c52 43 77 84 77 125 0 51 -73 211 -88 195 -3 -3 2 -13 10 -22 24 -27 48
-80 48 -104 0 -27 -55 -132 -82 -156 -18 -15 -17 -10 7 36 36 72 32 142 -11
204 -36 50 -112 97 -124 76 -5 -7 -3 -24 6 -40 21 -42 17 -46 -9 -8 -12 19
-39 42 -60 52 -48 24 -47 33 4 29 l40 -4 -17 38 c-55 129 -46 201 68 524 130
370 187 489 312 650 l51 65 -40 -34 c-35 -31 -173 -101 -388 -199 -37 -17 -70
-39 -74 -49 -3 -10 -25 -59 -48 -109 -74 -159 -105 -291 -105 -448 0 -176 31
-282 110 -376 22 -26 40 -52 40 -58 0 -5 15 -25 34 -44 42 -42 71 -130 63
-195 -7 -67 -24 -75 -32 -17 -9 72 -25 125 -35 119 -6 -3 -7 1 -4 10 4 10 -9
31 -38 60 -26 26 -41 48 -36 53 6 6 -11 35 -39 73 -59 78 -89 145 -102 230
-15 89 -13 249 4 343 16 92 72 239 88 229 6 -3 7 -1 3 5 -4 6 4 33 18 60 l25
50 -152 -66 c-83 -36 -166 -66 -183 -66 -18 -1 -30 -5 -27 -10 4 -5 -7 -6 -23
-2 -19 4 -24 3 -15 -2 9 -7 -9 -15 -60 -26 -80 -17 -281 -47 -286 -42 -2 2 27
11 64 21 38 10 135 40 217 66 82 27 153 46 159 42 5 -3 7 -1 3 5 -3 6 9 15 31
22 21 7 43 18 48 24 6 7 60 33 121 59 490 206 805 413 926 607 19 30 61 111
93 179 33 68 83 170 110 227 33 67 44 99 33 93 -28 -15 -200 -189 -305 -309
-91 -104 -272 -287 -247 -250 37 54 216 272 296 361 132 146 379 356 473 402
71 35 114 42 246 39 136 -4 163 4 233 69 36 33 46 50 43 67 -4 22 6 35 31 38
6 1 10 -2 7 -6 -3 -5 12 -6 32 -3 36 6 66 30 57 45 -3 4 13 19 36 33 36 22 40
30 40 65 0 33 -8 48 -51 97 -89 100 -96 151 -43 292 22 55 25 78 22 142 -6 95
-29 136 -101 177 -36 21 -68 51 -104 99 -86 116 -115 126 -63 22 l32 -63 -48
43 c-74 65 -196 122 -265 122 -57 1 -57 1 -75 42 -28 61 -201 319 -280 416
-41 49 -95 101 -131 126 l-61 42 66 66 c37 37 83 87 102 111 19 25 38 45 41
46 9 0 -10 -151 -26 -212 -14 -51 -14 -60 1 -97 22 -56 50 -62 106 -23 79 55
268 266 361 402 53 78 257 492 257 522 0 17 10 41 56 143 30 66 126 355 157
475 14 52 33 120 41 150 9 30 20 80 26 110 5 30 15 78 20 105 6 28 16 75 21
105 15 76 25 126 39 190 25 118 44 269 56 443 6 81 5 87 -13 87 -10 0 -37 -18
-58 -40 -21 -22 -44 -40 -50 -40 -6 0 -58 -48 -115 -106 -58 -58 -116 -110
-129 -115 -49 -20 -51 -10 -51 292 0 258 -4 303 -25 269 -4 -6 -25 -22 -47
-36 -43 -28 -498 -481 -498 -496 0 -5 -33 -45 -72 -89 -115 -125 -153 -170
-208 -244 -28 -39 -55 -72 -59 -75 -20 -14 -386 -539 -400 -575 -2 -5 -15 -27
-28 -48 -13 -21 -46 -82 -74 -135 -27 -53 -56 -103 -63 -112 -16 -18 -156
-302 -156 -315 0 -6 -20 -50 -44 -100 -24 -49 -70 -144 -101 -210 -32 -66 -69
-135 -82 -153 -13 -18 -37 -63 -53 -100 -15 -37 -60 -133 -98 -213 -39 -81
-93 -200 -120 -265 -27 -66 -60 -144 -73 -174 -12 -30 -34 -70 -47 -89 -19
-25 -23 -38 -15 -50 24 -39 242 -205 351 -267 20 -12 71 -44 112 -72 l75 -51
23 37 c17 27 21 47 18 72 -3 19 -12 91 -20 160 -8 69 -20 149 -25 179 -6 30
-11 174 -11 323 l0 270 44 -59 c58 -77 168 -182 236 -225 61 -39 174 -98 189
-98 5 0 77 61 161 135 84 74 156 135 159 135 3 -1 21 -13 39 -29 l32 -28 -150
-142 c-82 -79 -150 -146 -150 -150 0 -4 37 -36 83 -71 79 -62 367 -336 367
-351 0 -4 -89 -9 -197 -11 -188 -4 -203 -6 -290 -35 l-92 -31 -148 49 c-81 27
-160 58 -174 68 l-27 20 6 -21 c3 -12 22 -38 44 -58 44 -44 46 -49 14 -46 -19
2 -23 -2 -24 -24 -2 -79 -49 -182 -104 -231 l-41 -36 75 -6 c42 -3 89 -12 104
-20 l29 -15 -37 -7 c-61 -12 -259 -11 -323 1 -56 11 -57 12 -20 13 45 1 70 15
133 75 47 44 76 91 67 106 -3 5 -58 42 -123 81 -270 168 -407 274 -573 447
-123 128 -190 215 -294 387 -66 107 -168 307 -232 453 -17 39 -36 72 -41 72
-5 0 -26 -13 -46 -29 -20 -16 -49 -32 -64 -36 -15 -3 -47 -21 -71 -41 -45 -35
-45 -35 -135 -32 l-91 3 -58 85 c-31 47 -96 150 -144 230 -47 80 -94 154 -103
165 -9 11 -20 29 -24 39 -4 11 -50 98 -102 194 -53 96 -98 191 -101 211 -6 36
-33 88 -101 192 -20 30 -59 90 -87 132 -226 348 -309 466 -326 467 -4 0 -3
-19 2 -42 21 -110 4 -119 -90 -46 -39 29 -107 80 -152 113 -45 33 -101 76
-125 95 -23 19 -68 55 -99 80 -32 25 -84 68 -116 95 -32 28 -80 67 -106 88
-27 21 -69 54 -94 75 -25 20 -74 57 -109 82 -34 25 -84 60 -109 79 -25 19
-111 77 -191 129 -80 52 -157 103 -172 113 -15 11 -30 19 -33 19 -3 0 -24 12
-48 27 -23 15 -60 37 -82 49 -22 11 -66 35 -98 52 -72 40 -87 41 -87 4 0 -31
26 -158 60 -294 27 -106 22 -138 -20 -138 -26 0 -175 65 -205 90 -11 9 -93 56
-210 119 -27 15 -97 56 -155 91 -196 118 -217 130 -321 180 -103 49 -120 55
-131 44z m1357 -1464 c571 -307 801 -438 840 -479 11 -12 29 -31 40 -42 11
-11 45 -37 75 -57 103 -67 258 -193 284 -230 65 -95 72 -161 36 -336 -28 -135
-24 -212 15 -292 31 -62 163 -207 262 -285 61 -49 63 -52 48 -73 -33 -46 -84
-156 -101 -217 -26 -97 -24 -296 6 -419 13 -52 30 -113 39 -135 22 -53 17 -71
-36 -128 -32 -34 -43 -53 -37 -65 18 -43 16 -71 -10 -105 -14 -19 -26 -43 -26
-55 0 -11 -4 -24 -10 -27 -6 -3 -10 5 -10 19 0 14 5 28 10 31 6 3 10 13 10 22
0 9 7 24 16 34 11 12 13 25 8 41 -15 44 -4 82 37 123 44 46 47 60 19 110 -11
20 -20 42 -20 50 0 8 -4 15 -10 15 -5 0 -10 11 -10 24 0 14 -4 28 -10 31 -5 3
-10 16 -10 29 0 12 -6 28 -12 34 -10 10 -13 66 -13 212 0 146 3 202 13 211 6
7 12 23 12 36 0 13 5 23 10 23 6 0 10 6 10 13 0 18 24 67 33 67 26 0 -7 48
-103 145 -61 61 -110 114 -110 118 0 5 -9 17 -20 29 -11 12 -20 28 -20 35 0 7
-4 13 -10 13 -5 0 -10 9 -10 20 0 11 -4 20 -10 20 -5 0 -10 11 -10 24 0 14 -4
28 -10 31 -6 4 -10 53 -10 115 0 62 4 111 10 115 6 3 10 25 10 49 0 23 3 46 7
50 11 10 11 146 1 152 -4 3 -8 13 -8 22 0 17 -160 182 -177 182 -4 0 -22 14
-40 30 -18 17 -36 30 -41 30 -4 0 -17 8 -28 18 -10 10 -27 21 -36 25 -10 3
-18 13 -18 22 0 8 -3 15 -8 15 -4 0 -13 12 -19 28 -7 15 -27 36 -45 46 -18 11
-80 49 -138 86 -58 37 -195 116 -305 175 -536 290 -1126 621 -1144 641 -9 10
123 -60 784 -416z m481 -57 c166 -112 224 -157 213 -167 -8 -8 -829 557 -829
569 0 5 336 -215 616 -402z m-1261 139 c116 -49 358 -151 538 -226 181 -75
458 -195 617 -266 159 -72 294 -130 300 -130 13 0 13 -17 0 -25 -6 -4 -74 23
-153 58 -369 169 -379 173 -1007 440 -192 82 -566 257 -520 243 8 -2 110 -44
225 -94z m6670 -333 c-48 -194 -124 -430 -189 -591 -62 -153 -116 -271 -123
-265 -2 2 16 53 41 113 55 136 166 459 242 706 32 103 60 186 62 184 1 -2 -13
-68 -33 -147z m-118 89 c-3 -8 -6 -5 -6 6 -1 11 2 17 5 13 3 -3 4 -12 1 -19z
m-6367 -153 c408 -137 1097 -376 1155 -401 23 -9 34 -19 28 -25 -5 -5 -146 40
-363 117 -195 69 -454 159 -575 200 -357 122 -629 224 -645 242 -3 3 4 2 15
-2 11 -4 184 -63 385 -131z m6357 113 c-3 -8 -6 -5 -6 6 -1 11 2 17 5 13 3 -3
4 -12 1 -19z m-61 -249 c-30 -118 -79 -285 -110 -371 -59 -166 -145 -360 -165
-373 -8 -4 -6 8 4 32 41 95 53 131 48 137 -4 3 -2 6 4 6 23 0 195 507 248 730
10 41 20 70 22 64 2 -6 -21 -108 -51 -225z m-231 -204 c-47 -143 -91 -254
-146 -366 -69 -141 -161 -299 -173 -299 -2 0 42 93 99 208 93 187 234 521 266
630 7 23 14 40 17 37 3 -2 -26 -97 -63 -210z m-5348 -201 c-3 -3 -12 -4 -19
-1 -8 3 -5 6 6 6 11 1 17 -2 13 -5z m40 -10 c-3 -3 -12 -4 -19 -1 -8 3 -5 6 6
6 11 1 17 -2 13 -5z m40 -10 c-3 -3 -12 -4 -19 -1 -8 3 -5 6 6 6 11 1 17 -2
13 -5z m159 -39 c161 -44 166 -46 162 -51 -4 -3 -275 69 -303 80 -34 14 29 1
141 -29z m4452 -197 c-8 -13 -38 -62 -67 -110 -30 -49 -56 -88 -58 -88 -5 0
-3 4 69 123 33 53 62 97 65 97 3 0 -1 -10 -9 -22z m753 -31 c-10 -9 -11 -8 -5
6 3 10 9 15 12 12 3 -3 0 -11 -7 -18z m-20 -40 c-10 -9 -11 -8 -5 6 3 10 9 15
12 12 3 -3 0 -11 -7 -18z m-142 -1528 c27 -6 61 -21 76 -35 14 -13 30 -22 34
-19 5 2 17 -5 27 -18 l19 -22 -25 20 c-14 11 -5 -1 18 -25 24 -25 49 -45 55
-45 6 0 12 -5 14 -12 7 -19 -102 -46 -153 -39 -68 9 -142 52 -214 124 l-65 66
30 7 c48 11 130 10 184 -2z m-1289 -195 c-19 -8 -70 -29 -113 -47 -43 -18 -99
-50 -125 -71 l-47 -39 60 7 c33 4 96 11 140 16 44 6 100 10 125 9 l45 0 -50
-18 c-27 -10 -88 -36 -135 -58 -47 -22 -148 -61 -225 -87 -77 -26 -193 -74
-257 -106 -107 -53 -136 -62 -108 -34 7 7 -33 16 -118 28 -70 10 -181 26 -247
36 -66 11 -160 22 -210 26 -85 7 -88 8 -50 17 22 5 162 10 312 11 149 0 274 4
278 8 8 8 -54 26 -150 42 l-70 13 167 4 c92 3 170 8 174 12 13 13 -4 19 -73
25 l-68 6 125 17 c69 10 160 21 203 25 54 5 88 13 109 28 54 36 32 52 -72 56
-55 2 -55 2 70 36 151 41 206 52 285 52 l60 0 -35 -14z m1883 -241 c-7 -2 -19
-2 -25 0 -7 3 -2 5 12 5 14 0 19 -2 13 -5z m-688 -209 c-16 -2 -73 -9 -125
-15 -120 -13 -252 -42 -370 -79 -102 -31 -107 -27 -15 12 140 59 276 86 435
85 58 0 92 -2 75 -3z m279 -76 c-3 -4 30 -5 73 -2 57 4 74 3 63 -5 -18 -13
-137 -15 -144 -2 -3 5 -16 7 -29 4 -17 -4 -19 -2 -8 5 17 12 52 12 45 0z
m-5149 -2428 l26 -10 -29 -25 c-34 -29 -70 -106 -74 -158 -1 -22 -7 -37 -15
-37 -9 0 -13 -17 -14 -52 0 -46 -2 -50 -10 -28 -13 32 -2 162 19 215 14 36 58
105 67 105 2 0 16 -5 30 -10z m2315 -185 c0 -2 -15 -12 -32 -20 l-33 -16 24
21 c22 19 41 26 41 15z m1337 -107 c-2 -13 -4 -5 -4 17 -1 22 1 32 4 23 2 -10
2 -28 0 -40z"/>
<path d="M8642 5598 c-5 -7 -13 -23 -16 -36 -4 -12 -12 -20 -17 -16 -21 12
-38 -17 -32 -53 5 -31 4 -35 -11 -30 -19 8 -127 -72 -163 -120 l-21 -30 98
-50 99 -50 26 65 c35 87 65 216 65 280 0 52 -8 64 -28 40z"/>
<path d="M8211 5351 c-9 -6 9 -12 54 -20 69 -12 96 -8 54 7 -42 16 -94 22
-108 13z"/>
<path d="M4190 4104 c0 -8 5 -12 10 -9 6 3 10 10 10 16 0 5 -4 9 -10 9 -5 0
-10 -7 -10 -16z"/>
<path d="M2570 3323 c-14 -2 -77 -11 -140 -19 -176 -24 -432 -94 -615 -169
-135 -54 -285 -124 -333 -154 -72 -44 -264 -201 -319 -260 -53 -57 -173 -246
-173 -272 0 -8 -7 -25 -17 -38 -9 -13 -21 -42 -26 -65 -15 -60 -20 -360 -7
-419 17 -83 68 -197 125 -282 68 -101 315 -345 350 -345 3 0 24 -12 48 -27 23
-15 63 -37 90 -50 37 -18 47 -19 47 -8 0 8 -4 15 -9 15 -21 0 -170 131 -196
173 -5 8 -38 56 -72 105 -35 50 -63 95 -63 101 0 6 -4 19 -9 29 -5 9 -18 35
-29 57 -33 65 -62 223 -62 335 0 153 20 228 102 385 47 90 71 124 135 186 117
115 244 195 403 257 57 22 354 96 425 106 22 3 78 11 125 18 94 13 409 16 480
5 25 -4 77 -16 115 -26 39 -11 93 -24 120 -31 89 -20 207 -79 260 -130 54 -51
109 -85 125 -75 6 3 10 17 10 30 0 13 5 27 10 30 6 3 10 17 10 30 0 13 5 27
10 30 6 3 10 17 10 31 0 13 4 24 8 24 9 0 30 71 34 114 3 24 -4 34 -42 61 -51
36 -123 79 -160 96 -70 33 -108 47 -140 54 -77 17 -211 64 -236 84 -25 20 -38
21 -198 20 -94 -1 -182 -3 -196 -6z m-501 -173 c-26 -15 -111 -42 -116 -36 -8
7 79 44 107 45 20 0 22 -1 9 -9z"/>
<path d="M2951 1534 c-22 -28 -32 -66 -34 -134 -2 -53 -22 -63 -41 -20 l-13
32 -6 -38 c-9 -55 -9 -61 9 -78 16 -16 104 -23 104 -8 0 4 -7 27 -16 52 -17
50 -12 130 11 188 17 39 13 40 -14 6z"/>
<path d="M5840 1363 c0 -31 -4 -43 -15 -43 -8 0 -15 -7 -15 -15 0 -18 1 -18
34 -5 30 11 34 40 11 80 -14 25 -14 24 -15 -17z"/>
</g>
</svg>
