<?xml version="1.0" standalone="no"?>
<!DOCTYPE svg PUBLIC "-//W3C//DTD SVG 20010904//EN"
 "http://www.w3.org/TR/2001/REC-SVG-20010904/DTD/svg10.dtd">
<svg version="1.0" xmlns="http://www.w3.org/2000/svg"
 width="1024.000000pt" height="1024.000000pt" viewBox="0 0 1024.000000 1024.000000"
 preserveAspectRatio="xMidYMid meet">

<g transform="translate(0.000000,1024.000000) scale(0.100000,-0.100000)"
fill="#000000" stroke="none">
<path d="M5094 8805 c-15 -15 -23 -32 -20 -41 3 -9 6 -19 6 -23 0 -4 12 -13
26 -20 l26 -11 -4 -408 c-5 -454 -1 -425 -85 -638 -86 -220 -477 -826 -770
-1195 -303 -382 -740 -808 -1148 -1120 -373 -286 -862 -587 -1345 -829 -129
-64 -159 -84 -151 -94 9 -10 6 -17 -13 -30 -29 -18 -50 -20 -76 -6 -14 8 -19
5 -24 -13 -3 -12 -30 -55 -60 -96 -101 -135 -169 -291 -202 -466 -9 -48 -19
-188 -24 -350 -12 -368 -36 -504 -104 -578 l-34 -37 175 0 176 0 -26 20 c-40
32 -85 134 -103 235 -25 140 -30 481 -10 635 28 213 107 404 232 564 60 76
101 104 170 117 137 24 221 61 527 231 444 247 897 565 1257 882 162 142 447
428 578 579 235 271 488 622 691 962 136 227 177 304 232 433 l43 103 66 -1
c36 -1 91 -2 123 -1 l58 1 -15 28 c-7 15 -31 81 -51 147 -37 117 -38 125 -43
303 -4 205 -5 203 65 234 37 16 63 18 185 16 164 -3 181 2 289 92 64 54 101
66 145 50 39 -15 58 -33 112 -105 24 -33 41 -51 37 -40 -32 88 -32 178 1 222
50 67 140 92 218 59 56 -23 30 2 -37 38 -31 16 -74 48 -96 71 -42 44 -81 58
-121 43 -13 -5 -52 -35 -87 -68 -112 -105 -192 -112 -337 -28 -122 72 -209 85
-313 48 -62 -22 -75 -20 -50 8 23 25 21 57 -5 82 -29 27 -54 25 -84 -5z"/>
<path d="M5044 7555 c-12 -27 -27 -68 -34 -90 -14 -46 -172 -365 -250 -506
-373 -674 -747 -1148 -1285 -1628 -236 -210 -540 -436 -905 -671 -113 -73
-242 -157 -288 -187 l-83 -55 -134 -5 -134 -6 40 -79 c37 -70 78 -119 110
-130 12 -4 -4 -135 -42 -343 -138 -752 -260 -1139 -564 -1783 -37 -78 -64
-146 -60 -150 31 -31 269 469 394 833 115 331 238 833 274 1113 l12 93 29
-163 c83 -477 170 -912 261 -1298 24 -102 46 -200 50 -217 l7 -33 342 0 c444
0 529 14 785 127 l104 47 63 -66 c72 -76 125 -147 179 -238 21 -36 46 -78 56
-95 l17 -30 -101 -3 c-280 -6 -950 -60 -979 -78 -4 -3 -34 -7 -65 -11 -32 -3
-76 -11 -98 -19 -22 -7 -47 -14 -56 -14 -23 0 -80 -30 -86 -45 -2 -8 0 -22 6
-33 10 -19 48 -30 216 -66 141 -30 573 -69 965 -86 129 -6 246 -12 260 -15 14
-2 270 -9 570 -16 1146 -24 2612 47 2957 143 28 8 63 25 76 38 l24 24 -22 22
c-21 20 -40 30 -82 39 -10 2 -34 9 -53 14 -19 6 -51 11 -72 11 -20 0 -49 5
-63 10 -31 12 -343 45 -560 59 -365 25 -534 33 -546 26 -16 -10 52 111 117
210 54 82 168 215 185 215 5 0 48 -18 96 -41 107 -50 235 -94 328 -111 50 -9
177 -13 439 -13 l368 0 44 185 c122 511 206 944 317 1630 4 21 5 20 6 -7 0
-17 15 -114 32 -215 85 -508 227 -1012 409 -1448 113 -273 250 -528 250 -468
0 8 -28 75 -61 149 -227 496 -338 810 -449 1264 -50 204 -109 503 -130 655
-29 215 -30 190 12 228 34 31 77 104 93 160 6 22 6 22 -111 22 l-117 0 -161
102 c-644 408 -975 668 -1387 1085 -279 283 -402 430 -640 764 -185 261 -329
500 -467 775 -71 142 -165 362 -182 423 -6 23 -13 41 -16 38 -7 -6 48 -201 99
-352 89 -262 220 -566 350 -815 123 -234 349 -585 511 -794 293 -376 712 -790
1124 -1112 l141 -109 -308 -5 -309 -5 40 -70 c52 -92 100 -141 173 -176 81
-39 148 -39 230 -1 73 35 123 88 170 182 19 38 38 70 41 70 6 0 3 -33 -32
-365 -39 -364 -99 -761 -164 -1080 -29 -145 -101 -456 -107 -464 -1 -2 -153
70 -337 160 l-335 164 0 33 c-1 17 5 76 13 130 23 155 54 438 76 697 23 277
39 433 46 457 5 16 2 16 -38 -2 -61 -28 -128 -26 -199 6 -73 33 -72 41 2 13
141 -54 297 18 375 174 l35 69 -39 34 c-144 123 -491 569 -688 884 -226 360
-456 824 -599 1205 -86 230 -210 654 -275 940 -30 131 -28 125 -41 125 -7 0
-9 -9 -5 -22 3 -13 20 -126 36 -253 50 -380 129 -814 201 -1100 45 -176 190
-678 233 -800 113 -329 262 -659 414 -915 l50 -85 -334 -5 -334 -5 40 -66 c51
-86 112 -146 179 -177 46 -21 64 -24 126 -20 130 9 229 78 289 202 14 28 25
45 26 38 0 -7 -12 -35 -26 -63 -59 -118 -176 -199 -286 -199 l-60 0 6 -37 c3
-21 15 -150 26 -288 11 -137 27 -322 35 -410 8 -88 15 -170 15 -182 0 -45 310
-279 558 -421 146 -83 651 -336 762 -381 115 -47 70 -37 -80 18 -486 175 -881
398 -1176 662 -269 240 -553 644 -674 959 l-33 85 -62 0 -63 0 -22 -76 c-64
-224 -235 -496 -483 -770 -235 -261 -640 -545 -1023 -718 -103 -46 -352 -145
-469 -186 -11 -4 129 67 310 158 471 237 744 402 980 594 l60 49 16 204 c9
113 24 302 33 420 10 118 20 240 23 270 l5 55 -68 0 c-77 0 -135 23 -203 81
-36 31 -92 123 -105 174 -4 14 7 -2 23 -36 36 -71 111 -146 179 -177 69 -32
180 -30 247 3 65 32 132 100 173 178 l33 62 -324 0 -324 0 72 109 c209 317
359 643 525 1141 128 384 348 1454 386 1875 8 93 -7 75 -31 -35 -47 -221 -261
-878 -395 -1215 -215 -538 -504 -1023 -859 -1440 -96 -113 -386 -407 -416
-423 -19 -10 -19 -12 10 -73 75 -158 235 -240 384 -196 65 19 57 4 -10 -18
-69 -23 -158 -17 -200 14 -17 13 -33 21 -35 18 -5 -5 47 -564 71 -767 12 -100
71 -525 78 -564 2 -9 -589 -310 -629 -321 -20 -5 -24 5 -62 162 -54 221 -104
459 -147 701 -40 231 -131 854 -140 962 l-6 75 33 -75 c62 -143 168 -217 297
-208 112 8 222 90 289 216 l33 62 -305 2 -305 3 181 135 c701 522 1204 1078
1574 1740 194 346 428 885 524 1207 27 91 23 128 -6 58z m203 -157 c-3 -8 -6
-5 -6 6 -1 11 2 17 5 13 3 -3 4 -12 1 -19z m-160 -13 c0 -8 -4 -12 -9 -9 -5 3
-6 10 -3 15 9 13 12 11 12 -6z m-96 -22 c-12 -20 -14 -14 -5 12 4 9 9 14 11
11 3 -2 0 -13 -6 -23z m86 -55 c-3 -7 -5 -2 -5 12 0 14 2 19 5 13 2 -7 2 -19
0 -25z m-114 -3666 c-48 -116 -91 -208 -97 -205 -5 3 -6 1 -2 -6 15 -23 -142
-365 -255 -557 -82 -140 -183 -286 -276 -402 -48 -59 -111 -137 -141 -174
l-54 -68 -40 83 c-62 130 -155 202 -267 210 -21 1 -28 5 -19 10 255 147 559
383 722 559 195 212 395 503 481 700 16 37 31 66 32 64 2 -2 -35 -98 -84 -214z
m532 -225 c185 -260 399 -494 588 -640 87 -68 268 -191 340 -232 l38 -22 -55
-6 c-67 -7 -147 -48 -188 -97 -16 -19 -46 -70 -66 -112 l-37 -77 -96 127
c-295 391 -435 638 -591 1042 -22 58 -60 155 -83 215 -23 61 -46 119 -50 130
-4 11 22 -33 57 -98 35 -65 100 -169 143 -230z m-90 -193 c131 -392 281 -699
495 -1019 l67 -101 -69 -79 c-38 -44 -72 -81 -76 -83 -11 -4 -136 222 -195
353 -160 354 -275 741 -336 1135 -17 107 -36 217 -41 243 -20 95 -8 70 41 -93
27 -91 79 -251 114 -356z m-366 435 c-97 -575 -255 -1096 -442 -1453 -67 -129
-149 -266 -158 -266 -4 0 -39 34 -77 76 l-69 76 102 151 c177 264 295 491 430
827 64 159 172 477 201 595 9 36 18 64 20 62 2 -2 -1 -32 -7 -68z"/>
<path d="M4835 3389 c-4 -6 -5 -12 -2 -15 2 -3 7 2 10 11 7 17 1 20 -8 4z"/>
<path d="M4784 3289 c-54 -109 -201 -350 -336 -551 -65 -97 -118 -180 -118
-184 0 -5 10 5 23 23 12 17 41 55 64 85 59 78 148 214 225 343 78 132 190 346
184 353 -3 2 -21 -29 -42 -69z"/>
<path d="M5441 3415 c0 -5 6 -21 14 -35 8 -14 14 -20 14 -15 0 6 -6 21 -14 35
-8 14 -14 21 -14 15z"/>
<path d="M5470 3341 c0 -6 4 -13 10 -16 6 -3 7 1 4 9 -7 18 -14 21 -14 7z"/>
<path d="M5490 3307 c0 -4 39 -85 87 -180 73 -144 304 -512 345 -552 15 -14 9
-4 -117 195 -61 96 -145 238 -187 315 -99 181 -128 232 -128 222z"/>
<path d="M5280 7592 c0 -25 133 -285 245 -477 289 -496 600 -901 995 -1296
278 -278 452 -430 760 -659 385 -287 1036 -673 1231 -730 117 -34 127 -40 173
-94 155 -182 265 -426 296 -651 17 -125 8 -515 -14 -610 -21 -93 -63 -174
-105 -202 l-34 -23 177 0 177 0 -22 23 c-69 71 -95 208 -109 578 -14 381 -57
533 -217 769 -37 56 -77 119 -88 140 -19 37 -21 38 -47 24 -25 -13 -29 -12
-55 11 -27 24 -28 25 -9 40 14 10 15 15 6 15 -23 0 -406 211 -675 373 -977
584 -1646 1197 -2227 2037 -119 173 -415 649 -444 715 -7 17 -13 24 -14 17z"/>
<path d="M5147 7468 c-4 -68 -11 -188 -17 -268 -5 -80 -16 -260 -25 -400 -8
-140 -20 -334 -26 -430 -19 -316 -107 -1188 -150 -1485 -24 -169 -64 -371 -88
-441 -17 -51 -17 -52 7 -103 33 -70 90 -131 153 -166 46 -26 65 -30 129 -30
60 0 85 5 123 25 57 29 123 97 157 163 22 41 23 49 10 58 -13 9 -12 10 3 5 21
-7 21 -8 2 80 -36 175 -78 586 -139 1384 -47 596 -63 845 -76 1125 -17 399
-32 581 -49 598 -4 4 -11 -47 -14 -115z m-64 -3085 c-7 -2 -21 -2 -30 0 -10 3
-4 5 12 5 17 0 24 -2 18 -5z"/>
</g>
</svg>
