<?xml version="1.0" standalone="no"?>
<!DOCTYPE svg PUBLIC "-//W3C//DTD SVG 20010904//EN"
 "http://www.w3.org/TR/2001/REC-SVG-20010904/DTD/svg10.dtd">
<svg version="1.0" xmlns="http://www.w3.org/2000/svg"
 width="1024.000000pt" height="1024.000000pt" viewBox="0 0 1024.000000 1024.000000"
 preserveAspectRatio="xMidYMid meet">

<g transform="translate(0.000000,1024.000000) scale(0.100000,-0.100000)"
fill="#000000" stroke="none">
<path d="M5277 9155 c15 -25 238 -260 348 -365 229 -218 302 -285 488 -448
160 -140 539 -462 649 -551 34 -27 44 -24 117 29 l43 32 -33 35 c-44 46 -287
258 -386 337 -69 55 -404 317 -474 371 -14 11 -77 59 -140 107 -63 48 -145
112 -184 141 -172 133 -435 325 -428 312z"/>
<path d="M4800 9145 c0 -19 360 -350 551 -506 70 -57 205 -172 300 -254 96
-83 208 -178 249 -211 230 -185 293 -234 483 -377 114 -86 210 -157 213 -157
5 0 143 87 154 97 3 3 -7 15 -21 26 -192 159 -245 200 -256 200 -6 0 -10 4 -7
8 6 11 -37 39 -49 32 -6 -3 -7 -2 -4 3 3 6 -46 48 -109 94 -63 47 -181 135
-263 195 -81 61 -223 162 -315 225 -92 63 -213 147 -269 187 -56 40 -194 134
-307 209 -113 76 -238 159 -277 186 -40 27 -73 46 -73 43z"/>
<path d="M4434 9015 c95 -92 263 -241 336 -297 46 -35 274 -219 324 -260 21
-18 55 -47 75 -64 109 -94 374 -302 496 -389 253 -183 726 -497 740 -491 21 8
145 90 145 96 -1 6 -62 52 -155 117 -33 24 -69 50 -80 58 -101 79 -221 162
-228 158 -4 -2 -6 1 -5 9 2 7 -5 12 -14 12 -10 -1 -16 2 -13 6 7 11 -22 33
-35 25 -6 -4 -9 -2 -8 3 4 15 -90 84 -104 76 -6 -4 -8 -3 -4 4 6 10 -126 108
-289 214 -38 25 -131 85 -205 133 -347 227 -548 356 -695 448 -88 55 -196 123
-240 152 -139 90 -142 89 -41 -10z"/>
<path d="M5990 8975 c287 -305 423 -444 710 -723 179 -175 418 -398 530 -498
322 -284 529 -507 654 -706 31 -48 34 -58 19 -58 -32 1 -59 24 -150 125 -50
55 -155 161 -234 235 -188 177 -396 384 -440 438 l-35 43 16 -132 17 -132 39
-35 c21 -18 77 -68 123 -111 235 -212 364 -320 426 -357 25 -14 45 -28 45 -30
0 -9 -56 9 -105 33 -81 40 -320 247 -308 267 3 6 3 8 -2 4 -9 -9 -68 36 -152
117 l-62 60 4 -45 c16 -186 12 -172 65 -210 26 -19 81 -60 121 -91 41 -31 92
-66 114 -78 46 -24 41 -25 -35 -7 -33 8 -54 18 -52 25 1 7 -2 10 -8 6 -13 -8
-76 44 -72 59 2 6 0 8 -4 3 -4 -4 -16 0 -26 9 -15 14 -16 20 -5 33 11 14 10
14 -6 2 -16 -12 -21 -11 -49 15 l-31 29 7 -49 c3 -27 6 -58 6 -70 0 -15 20
-37 61 -69 46 -34 56 -47 41 -47 -23 0 -85 47 -77 59 2 4 -2 8 -9 8 -9 0 -12
-14 -9 -46 1 -25 5 -75 8 -111 2 -36 9 -236 15 -445 6 -209 13 -402 16 -430
l5 -50 103 3 c116 4 137 -2 166 -51 18 -29 20 -51 20 -210 l0 -179 -34 -34
-34 -34 -116 0 -116 0 0 -147 c0 -170 -25 -682 -40 -828 -29 -281 -65 -522
-80 -538 -4 -5 -63 25 -131 66 -231 139 -444 244 -709 351 -155 63 -229 88
-240 81 -5 -3 -10 -2 -10 4 0 18 -414 146 -667 205 -231 54 -810 167 -1013
197 -58 9 -67 8 -92 -11 -16 -12 -34 -18 -41 -14 -6 4 -9 3 -4 -1 10 -11 -110
-88 -124 -80 -5 4 -8 1 -7 -6 2 -6 -3 -14 -11 -17 -10 -3 -11 0 -5 9 7 12 5
12 -9 0 -18 -15 -23 -26 -7 -16 6 3 10 4 10 2 0 -10 -72 -47 -81 -41 -5 3 -8
0 -7 -8 2 -7 -5 -12 -15 -11 -10 0 -16 -2 -13 -5 10 -9 -33 -34 -46 -26 -7 5
-8 3 -3 -6 6 -10 4 -12 -8 -7 -10 4 -16 2 -14 -6 1 -7 -6 -11 -16 -10 -10 0
-16 -2 -13 -5 10 -9 -33 -34 -46 -26 -6 4 -8 3 -5 -3 9 -14 -40 -46 -55 -37
-6 4 -8 3 -5 -2 3 -6 -63 -55 -146 -109 -83 -55 -208 -140 -277 -189 -69 -49
-201 -141 -295 -204 -93 -63 -210 -145 -260 -181 -49 -35 -167 -119 -260 -186
-94 -66 -193 -137 -220 -158 -28 -21 -111 -84 -185 -139 -214 -160 -499 -402
-487 -414 3 -3 25 5 49 19 24 13 158 83 298 154 256 131 457 240 605 328 44
27 136 80 205 120 69 40 217 125 330 190 113 65 282 165 375 223 94 58 188
116 210 129 105 64 267 171 333 220 41 31 77 51 84 47 6 -4 8 -3 5 3 -9 14 40
46 55 37 6 -4 8 -3 4 4 -8 14 50 55 65 46 7 -4 9 -3 6 3 -7 11 39 46 60 46 7
0 10 4 8 8 -6 8 44 42 62 42 7 0 11 3 8 5 -9 9 65 53 77 46 6 -4 8 -3 4 4 -3
6 -2 13 4 17 5 3 10 2 10 -4 0 -21 36 -31 56 -15 18 15 18 15 -2 5 -24 -11
-49 1 -42 20 3 8 21 22 39 32 l34 19 -25 -21 c-19 -16 -20 -20 -6 -14 13 4 17
3 12 -5 -3 -6 -1 -14 5 -18 8 -5 9 -3 4 6 -6 9 -4 11 6 5 11 -6 11 -5 2 5 -16
17 8 52 53 80 20 11 33 16 30 12 -2 -4 -1 -14 4 -22 8 -13 12 -12 27 3 16 16
16 17 0 17 -23 0 -21 17 3 30 16 8 24 8 35 -4 9 -8 11 -17 6 -21 -5 -3 -12 -1
-16 5 -3 5 -14 10 -23 10 -14 0 -13 -2 2 -13 17 -13 16 -15 -14 -39 -19 -15
-40 -24 -47 -21 -8 3 -13 1 -11 -5 4 -15 -104 -103 -119 -98 -7 3 -15 0 -19
-6 -5 -7 -2 -8 7 -4 23 12 -42 -42 -109 -90 -34 -25 -66 -43 -71 -40 -4 3 -17
-4 -27 -17 -19 -22 -19 -22 1 -7 12 8 3 -2 -20 -22 -22 -21 -45 -36 -52 -33
-7 2 -15 -1 -19 -7 -5 -7 -2 -8 7 -4 8 4 3 -2 -11 -13 -14 -11 -30 -19 -37
-16 -7 2 -15 -1 -19 -7 -5 -7 -2 -8 7 -4 8 4 5 1 -5 -8 -10 -8 -23 -13 -29 -9
-6 3 -7 1 -4 -4 7 -11 -39 -46 -60 -46 -7 0 -10 -3 -8 -7 3 -4 -39 -38 -93
-75 -105 -74 -432 -324 -577 -442 -101 -82 -174 -140 -207 -165 -265 -203
-382 -298 -455 -366 -29 -27 -123 -107 -209 -178 -171 -141 -216 -179 -319
-269 -37 -33 -78 -67 -90 -75 -26 -18 -265 -222 -265 -226 0 -18 241 124 690
406 127 80 238 150 248 155 30 17 233 152 292 194 30 22 105 73 165 115 61 41
133 91 160 111 28 20 131 90 230 157 99 66 238 162 308 212 71 50 138 98 150
106 12 8 102 76 201 150 98 74 188 142 200 150 13 8 46 34 74 58 28 24 56 41
61 38 5 -3 15 2 22 12 13 16 12 16 -6 2 -20 -15 -20 -15 -1 8 11 12 26 20 33
18 7 -3 12 0 10 7 -1 7 4 11 10 10 7 -2 12 1 10 6 -1 5 54 54 123 109 102 82
127 98 139 89 12 -10 14 -9 9 4 -8 21 10 39 30 32 9 -4 13 -2 9 4 -6 9 11 29
56 63 10 7 17 9 16 4 -4 -21 2 -26 19 -14 9 7 -30 -33 -88 -88 -83 -79 -108
-98 -121 -91 -21 11 -48 -14 -28 -27 8 -5 9 -3 4 6 -6 9 -4 11 5 5 9 -6 11 -4
5 6 -6 11 -5 11 5 2 14 -13 16 -11 -160 -159 -58 -48 -108 -92 -111 -97 -4 -5
-12 -6 -19 -2 -8 5 -11 4 -7 -2 7 -11 -10 -31 -28 -32 -5 -1 -10 -6 -10 -12 0
-15 -107 -99 -117 -93 -5 3 -7 1 -6 -5 2 -6 -27 -34 -63 -63 -262 -207 -588
-490 -839 -727 -80 -75 -183 -170 -230 -211 -47 -41 -94 -84 -105 -95 -12 -11
-63 -58 -115 -105 -52 -46 -120 -107 -150 -136 -30 -28 -84 -77 -120 -109 -36
-32 -130 -122 -210 -199 -80 -78 -186 -181 -237 -229 -51 -48 -89 -87 -85 -87
7 0 334 218 513 342 279 193 363 254 542 388 106 80 217 164 247 187 60 46
290 219 324 243 19 14 93 71 235 183 98 78 344 282 565 470 120 103 223 184
229 180 5 -3 7 -2 4 4 -3 5 14 26 38 46 45 38 62 47 49 25 -4 -7 20 9 54 36
34 26 62 50 62 52 0 3 -19 -9 -42 -27 -66 -50 -68 -52 -68 -47 0 3 27 27 61
53 34 26 111 91 173 144 175 151 230 197 222 183 -5 -8 -1 -11 11 -9 10 1 18
7 18 12 0 6 -4 9 -9 7 -5 -2 -4 3 3 11 11 14 34 17 46 6 2 -3 -14 -23 -36 -45
-22 -21 -40 -34 -39 -29 4 21 0 36 -9 30 -6 -3 -8 -14 -6 -24 2 -12 -16 -37
-53 -72 -31 -30 -42 -38 -24 -18 24 26 30 38 20 42 -19 7 -54 -19 -36 -27 7
-3 4 -4 -7 -3 -15 2 -20 -4 -20 -25 -1 -34 -60 -99 -83 -91 -9 4 -13 2 -9 -4
8 -13 -106 -125 -124 -120 -8 2 -11 2 -6 0 18 -11 5 -23 -19 -19 -15 3 -24 2
-20 -1 3 -4 -2 -16 -11 -27 -14 -17 -11 -16 12 3 17 14 8 2 -20 -27 -47 -48
-75 -67 -59 -39 6 8 3 8 -9 -1 -9 -8 -15 -19 -14 -25 1 -7 -4 -11 -11 -9 -8 1
-11 -2 -7 -7 5 -10 -30 -35 -50 -36 -5 0 -10 -7 -10 -15 -1 -8 -7 -14 -14 -12
-7 1 -10 -2 -6 -7 6 -10 -33 -37 -47 -33 -5 1 -7 -4 -5 -11 1 -6 -4 -11 -11
-9 -8 1 -11 -2 -7 -7 6 -11 -52 -58 -67 -53 -5 1 -7 -1 -4 -6 8 -14 -51 -65
-65 -57 -7 5 -10 4 -6 -2 4 -6 -78 -91 -180 -189 -103 -99 -240 -231 -304
-294 -64 -63 -138 -135 -165 -159 -103 -92 -172 -160 -268 -261 -55 -58 -172
-179 -260 -270 -89 -91 -269 -278 -401 -415 -132 -138 -285 -296 -339 -352
-55 -57 -97 -103 -92 -103 4 0 44 27 89 60 45 33 115 83 155 112 63 46 103 77
172 131 29 23 165 123 200 147 19 14 40 28 45 33 72 57 158 123 190 145 36 24
154 119 423 340 43 34 113 91 156 125 76 60 99 79 231 190 33 28 150 140 260
248 271 266 472 452 484 445 5 -3 8 2 7 12 0 10 6 17 16 17 9 0 20 4 25 9 5 5
2 6 -7 1 -13 -8 -13 -6 -1 8 7 9 18 14 24 10 5 -3 7 -2 4 4 -8 13 67 86 77 76
4 -5 6 -1 4 7 -2 8 3 14 9 13 7 -2 12 3 10 10 -1 6 4 11 10 10 7 -2 12 3 10
10 -1 6 4 11 11 9 8 -1 11 1 8 6 -5 9 57 70 152 149 34 29 56 41 69 37 12 -4
14 -3 6 3 -9 6 40 60 165 183 97 96 158 155 134 130 -29 -32 -39 -49 -32 -56
7 -7 4 -16 -11 -29 -11 -11 -20 -15 -19 -10 6 30 -6 24 -60 -30 -32 -32 -56
-63 -53 -69 3 -6 2 -8 -2 -3 -9 8 -85 -60 -85 -77 0 -6 19 8 43 29 23 22 6 3
-38 -43 -56 -58 -85 -81 -98 -78 -15 4 -16 2 -6 -10 10 -12 6 -18 -12 -16 -3
1 -12 -10 -19 -23 -7 -13 -20 -27 -28 -30 -13 -5 -13 -3 1 13 9 10 14 22 10
27 -5 4 -2 5 6 0 10 -6 12 -4 7 4 -9 13 -21 6 -21 -12 -1 -7 -6 -11 -11 -10
-6 1 -11 -10 -10 -25 1 -17 -4 -26 -11 -25 -7 2 -12 -3 -10 -10 1 -6 -4 -11
-10 -10 -7 2 -12 0 -10 -5 1 -4 -2 -8 -7 -9 -5 -1 -14 -12 -21 -25 -6 -13 -17
-22 -24 -20 -7 1 -10 -1 -8 -6 3 -4 -31 -43 -76 -87 -45 -44 -66 -62 -47 -40
l35 40 -37 -34 c-21 -19 -35 -38 -33 -42 8 -12 -96 -120 -108 -112 -5 3 -7 1
-4 -4 8 -13 -27 -46 -38 -36 -4 5 -5 3 -1 -4 4 -7 -59 -78 -165 -185 -250
-252 -383 -396 -606 -657 -54 -63 -152 -175 -218 -249 -66 -74 -171 -196 -233
-271 -63 -75 -157 -188 -211 -251 -213 -252 -318 -380 -385 -469 -19 -25 13
-3 84 59 36 30 99 82 140 115 179 143 647 545 830 714 63 58 252 241 420 406
391 385 635 620 817 789 38 36 66 55 74 50 7 -4 10 -3 6 3 -8 13 78 97 91 89
6 -3 14 -1 18 5 4 8 3 9 -4 5 -16 -9 -15 7 0 22 15 15 31 16 22 0 -4 -7 -3 -8
4 -4 6 4 9 13 5 21 -3 8 0 16 6 16 6 1 15 2 21 3 5 0 15 8 22 16 11 12 10 12
-7 0 -20 -14 -20 -14 -1 7 10 13 23 20 29 16 5 -3 7 -1 4 4 -9 15 71 85 86 77
7 -4 9 -3 4 1 -7 8 460 485 476 485 11 0 9 -28 -3 -35 -6 -4 -7 1 -3 12 6 17
5 17 -15 -1 -18 -16 -20 -22 -9 -35 10 -14 10 -14 -4 -3 -13 10 -19 10 -28 -2
-9 -11 -9 -16 -1 -21 16 -10 -57 -84 -79 -80 -26 4 -37 -8 -15 -17 16 -7 16
-8 -4 -4 -15 3 -22 0 -19 -7 3 -7 11 -11 18 -9 8 2 -12 -24 -45 -57 -38 -39
-64 -57 -74 -53 -10 3 -13 1 -8 -7 5 -7 2 -10 -6 -9 -7 2 -12 -3 -11 -9 2 -7
-3 -12 -10 -10 -7 1 -11 -6 -10 -18 1 -11 0 -14 -3 -7 -8 18 -24 4 -18 -16 5
-14 4 -15 -5 -2 -10 14 -16 7 -12 -14 3 -13 -20 -36 -30 -30 -5 3 -8 0 -7 -8
2 -7 -3 -12 -9 -11 -7 2 -12 -3 -10 -10 1 -6 -5 -11 -13 -9 -8 2 -11 0 -7 -4
9 -10 -123 -145 -135 -138 -5 3 -7 0 -6 -8 2 -7 -3 -12 -10 -10 -8 1 -11 -2
-8 -7 8 -13 -74 -102 -86 -94 -6 3 -8 1 -5 -4 8 -13 -27 -46 -38 -36 -4 5 -5
3 -2 -3 8 -14 -26 -47 -37 -37 -4 5 -6 3 -4 -3 2 -7 -91 -110 -207 -230 -115
-121 -226 -235 -245 -255 -163 -170 -483 -553 -675 -809 -27 -36 -97 -126
-155 -200 -106 -134 -179 -228 -348 -450 -85 -111 -235 -324 -216 -307 5 5
134 131 287 280 154 150 282 274 287 277 4 3 102 95 216 205 115 110 242 232
283 270 144 137 461 480 664 719 42 50 86 99 98 108 11 9 19 19 17 22 -5 9
271 359 345 439 23 24 157 181 258 302 19 24 76 85 125 137 49 51 81 84 72 73
-12 -15 -15 -24 -7 -32 7 -7 -2 -21 -30 -46 -21 -19 -37 -37 -35 -40 3 -2 -11
-18 -31 -35 -19 -17 -35 -36 -35 -41 0 -5 -18 -25 -40 -45 -22 -20 -37 -36
-33 -36 3 0 -2 -9 -12 -20 -10 -11 -22 -17 -28 -13 -5 3 -7 1 -3 -5 3 -6 -6
-20 -21 -32 -16 -12 -28 -25 -28 -28 0 -4 -3 -6 -7 -5 -5 2 -7 -3 -5 -10 1 -6
-4 -11 -11 -9 -8 1 -11 -2 -7 -7 3 -6 -25 -43 -63 -83 -37 -40 -86 -93 -108
-118 -21 -24 -51 -57 -66 -73 -15 -15 -28 -31 -29 -35 -4 -22 -101 -132 -111
-126 -7 5 -9 2 -5 -9 4 -10 -3 -23 -19 -36 -14 -11 -24 -23 -23 -26 4 -15 -62
-96 -73 -89 -7 4 -8 3 -4 -4 8 -13 -102 -158 -116 -154 -5 1 -7 -1 -4 -6 8
-13 -43 -78 -57 -74 -7 2 -9 0 -5 -4 8 -8 -24 -55 -153 -219 -132 -170 -278
-379 -721 -1035 -138 -204 -264 -401 -302 -470 -13 -23 36 28 240 250 103 113
191 207 195 210 4 3 22 23 39 45 17 22 71 82 119 135 49 52 116 129 151 170
34 41 70 82 80 90 17 16 292 337 465 544 50 59 97 116 106 127 8 10 58 64 111
121 145 157 314 351 412 473 49 61 93 109 98 107 5 -1 7 2 3 8 -7 12 103 150
118 147 5 -1 11 7 13 17 1 11 13 29 25 40 12 12 18 14 14 6 -5 -8 -4 -11 0 -7
5 4 10 14 11 21 2 14 121 166 130 166 3 0 2 -6 -2 -12 -6 -10 -5 -10 8 -1 8 7
17 11 20 8 3 -3 11 2 19 12 12 15 12 16 -1 8 -18 -11 -40 -15 -40 -8 0 13 123
142 130 138 5 -3 12 0 16 6 4 8 3 9 -4 5 -7 -4 -12 -3 -12 2 0 12 35 43 42 37
2 -3 5 1 5 8 0 19 84 128 95 125 5 -2 8 -8 6 -13 -2 -6 -6 -9 -10 -8 -3 1 -12
-5 -20 -15 -12 -15 -11 -16 5 -3 29 23 19 0 -20 -44 -21 -23 -60 -72 -87 -109
-27 -36 -53 -66 -59 -66 -6 0 -8 -3 -4 -6 6 -6 -100 -154 -110 -154 -3 0 1 8
8 18 13 15 12 16 -3 4 -9 -8 -15 -19 -12 -26 3 -7 -3 -19 -12 -27 -15 -12 -17
-12 -9 0 5 10 4 12 -4 7 -6 -4 -9 -12 -5 -17 7 -12 -15 -41 -26 -34 -5 3 -12
0 -16 -6 -4 -8 -3 -9 4 -5 17 10 15 -9 -1 -23 -8 -6 -17 -7 -21 -3 -4 4 -6 0
-4 -8 2 -8 -2 -14 -9 -13 -7 2 -10 -3 -8 -10 3 -6 -8 -26 -23 -42 -15 -17 -22
-24 -17 -15 9 13 8 13 -7 1 -10 -7 -15 -17 -12 -23 8 -13 -16 -39 -29 -31 -6
3 -7 1 -3 -6 10 -15 -13 -43 -27 -34 -6 3 -7 1 -3 -5 8 -14 -34 -63 -47 -55
-6 3 -7 1 -3 -6 10 -15 -13 -43 -27 -34 -6 3 -7 1 -3 -6 10 -15 -13 -43 -28
-34 -6 3 -8 3 -4 -2 11 -11 -11 -47 -24 -39 -6 4 -8 3 -5 -3 4 -6 -46 -80
-110 -164 -64 -85 -142 -192 -173 -239 -31 -47 -97 -146 -147 -220 -49 -74
-132 -196 -184 -270 -52 -74 -121 -176 -154 -227 -33 -51 -157 -237 -276 -415
-119 -178 -224 -336 -233 -353 -9 -16 -39 -66 -67 -110 -28 -44 -65 -105 -82
-135 l-30 -55 30 30 c47 48 726 802 908 1010 145 165 518 631 790 985 27 36
95 119 150 186 55 67 129 158 163 203 35 44 66 81 68 81 2 0 -32 -48 -77 -107
-44 -60 -96 -132 -116 -160 -19 -29 -39 -51 -44 -47 -5 3 -6 -2 -3 -10 4 -11
0 -16 -10 -16 -9 0 -15 -3 -14 -7 5 -15 -44 -83 -54 -77 -6 4 -8 3 -5 -3 9
-14 -42 -85 -55 -77 -7 4 -8 2 -4 -5 10 -15 -13 -43 -27 -34 -6 3 -7 1 -3 -5
9 -15 -73 -124 -87 -115 -6 3 -7 1 -3 -5 7 -11 -11 -39 -228 -345 -242 -342
-372 -543 -613 -947 -151 -253 -291 -510 -279 -510 8 0 374 436 487 580 58 74
165 216 238 315 73 99 137 179 143 177 5 -1 7 2 4 7 -4 5 24 52 61 104 38 52
110 157 162 233 52 77 126 184 165 239 39 55 93 134 121 175 87 129 266 380
271 380 3 0 -23 -42 -59 -92 -35 -51 -111 -162 -168 -246 -57 -85 -148 -217
-201 -295 -200 -290 -405 -596 -503 -752 -56 -88 -193 -301 -304 -474 -111
-172 -200 -315 -198 -317 2 -3 64 12 138 32 74 19 204 54 289 75 85 22 198 51
250 65 131 35 987 254 1255 321 121 31 221 57 223 58 2 2 -6 30 -18 64 -29 87
-26 102 30 173 68 86 83 118 110 228 62 253 118 348 255 427 49 28 51 31 99
153 60 151 113 213 210 249 80 30 140 32 347 13 168 -15 181 -14 243 2 121 33
198 128 182 225 -3 19 -22 69 -43 110 -33 65 -38 86 -38 143 0 41 5 72 13 80
7 7 36 15 65 18 l52 6 -42 12 c-60 18 -79 65 -52 125 16 34 52 49 137 55 88 6
92 17 27 77 -40 38 -43 43 -30 61 7 11 21 47 31 79 25 88 61 119 153 135 101
17 135 47 135 118 0 47 -9 65 -125 259 -95 157 -135 214 -162 232 l-36 24 32
22 c31 20 32 24 29 79 l-3 58 65 62 c74 69 88 99 76 172 -5 27 -11 101 -14
164 -14 315 -66 520 -172 667 -15 21 -14 22 38 32 126 27 225 99 270 196 32
71 32 223 -2 310 -22 60 -44 96 -34 58 10 -38 -15 -101 -51 -129 -28 -21 -42
-25 -70 -21 -42 7 -90 30 -129 61 l-29 24 39 -7 c52 -9 100 2 130 30 33 31 30
44 -4 19 -15 -11 -46 -23 -67 -26 l-40 -6 30 20 c17 11 41 32 55 47 l25 28
-34 -18 c-25 -13 -47 -16 -79 -11 -41 6 -69 18 -172 79 -29 18 -33 18 -21 4
13 -17 13 -17 -13 -6 -20 9 -23 15 -14 22 9 6 8 7 -4 3 -34 -10 -349 111 -411
159 -20 15 -55 54 -77 87 -49 73 -50 68 -7 -21 l34 -69 -41 25 c-23 15 -59 41
-81 58 -35 28 -96 65 -108 65 -2 0 16 -21 42 -46 26 -27 41 -49 34 -51 -28
-10 -57 24 -109 130 -64 127 -141 249 -218 346 -53 65 -220 230 -352 346 -37
33 -122 110 -189 170 -136 125 -317 285 -449 395 -152 129 -167 141 -346 295
-215 185 -402 341 -455 380 -30 22 -22 10 35 -50z m2796 -2297 l29 -33 -32 29
c-31 28 -38 36 -30 36 2 0 16 -15 33 -32z m349 -277 c-20 -40 -56 -63 -111
-71 -24 -4 -44 -5 -44 -4 0 2 22 15 49 28 53 28 97 73 108 114 l8 27 3 -32 c2
-17 -4 -45 -13 -62z m-4500 -1581 c3 -6 -1 -7 -9 -4 -18 7 -21 14 -7 14 6 0
13 -4 16 -10z m362 -77 c-9 -2 -15 -8 -13 -12 3 -4 -4 -7 -15 -7 -19 0 -19 1
-3 13 10 7 25 12 33 12 12 -1 12 -2 -2 -6z m123 -57 c0 -2 -17 -16 -37 -31
l-38 -26 35 30 c34 31 40 35 40 27z m630 -130 c0 -2 -9 -6 -20 -9 -11 -3 -18
-1 -14 4 5 9 34 13 34 5z m-40 -49 c0 -2 -10 -12 -22 -23 l-23 -19 19 23 c18
21 26 27 26 19z m215 -67 c-34 -34 -52 -46 -60 -40 -14 11 -51 -23 -41 -38 3
-5 -3 -17 -14 -27 -11 -10 -20 -14 -20 -10 0 4 -9 0 -20 -10 -11 -10 -18 -21
-15 -25 2 -3 -32 -42 -76 -85 -43 -44 -79 -75 -79 -70 0 6 -5 3 -10 -5 -7 -11
-10 -11 -10 -2 0 7 -5 10 -10 7 -8 -5 -8 -11 0 -20 7 -8 7 -15 1 -19 -5 -4
-13 -1 -17 5 -4 7 -27 -9 -60 -42 -72 -72 -69 -88 4 -19 31 30 12 9 -42 -47
-55 -56 -103 -100 -108 -97 -4 3 -8 -2 -8 -11 0 -11 -5 -15 -16 -11 -8 3 -13
2 -10 -2 3 -5 -65 -77 -150 -160 -84 -83 -154 -149 -154 -146 0 12 275 292
282 288 4 -3 8 0 8 7 0 14 360 379 515 522 61 56 104 95 97 85 -8 -9 -9 -19
-4 -22 13 -8 34 18 24 29 -4 5 -2 5 5 1 6 -3 14 -2 18 4 3 5 9 10 13 10 3 0
-16 -22 -43 -50z m-365 -84 c0 -2 -12 -11 -27 -20 l-28 -17 24 20 c23 21 31
25 31 17z m760 -21 c-7 -8 -16 -12 -21 -10 -9 6 -80 -67 -73 -74 2 -3 21 11
42 30 l37 34 -35 -38 c-20 -22 -40 -35 -48 -32 -10 4 -13 0 -9 -14 3 -13 -3
-27 -17 -38 -21 -18 -21 -18 -4 3 11 12 14 24 8 30 -11 11 93 124 116 124 13
0 14 -3 4 -15z m424 -247 c-17 -18 -54 -63 -83 -100 -29 -38 -57 -68 -62 -68
-6 0 -8 -4 -5 -8 3 -5 -34 -53 -81 -108 -47 -54 -98 -115 -112 -134 -14 -19
-32 -41 -38 -48 -7 -7 -17 -21 -22 -30 -5 -9 -12 -14 -15 -11 -4 3 37 62 89
130 53 68 137 178 188 244 130 168 148 188 160 176 8 -8 2 -21 -19 -43z m208
-170 c-7 -7 -12 -8 -12 -2 0 14 12 26 19 19 2 -3 -1 -11 -7 -17z m-167 -197
c-8 -17 -21 -33 -27 -37 -8 -5 -7 1 3 16 8 14 19 31 23 38 15 25 16 11 1 -17z
m-494 -193 c-17 -24 -45 -62 -63 -85 -18 -23 -64 -82 -101 -132 -38 -50 -71
-91 -73 -91 -9 0 17 38 108 155 51 66 104 137 118 157 14 21 29 38 33 38 4 0
-6 -19 -22 -42z m-581 -88 c-17 -22 -34 -40 -37 -40 -2 0 10 18 27 40 17 22
34 40 37 40 2 0 -10 -18 -27 -40z m-68 -87 c-16 -21 -40 -47 -53 -58 -13 -11
-1 6 25 38 54 63 75 78 28 20z m-114 -132 c-24 -27 -45 -47 -47 -45 -5 4 79
94 87 94 2 0 -16 -22 -40 -49z m513 -28 c-5 -10 -22 -29 -37 -43 -24 -22 -23
-20 6 18 35 44 47 54 31 25z"/>
<path d="M5876 4431 c-10 -11 -13 -22 -8 -25 5 -3 17 3 26 13 10 11 13 22 8
25 -5 3 -17 -3 -26 -13z"/>
<path d="M5690 4255 c-62 -63 -106 -113 -96 -111 18 3 158 137 151 145 -7 7
37 51 45 46 4 -3 13 2 19 9 7 8 8 17 3 20 -4 3 -59 -46 -122 -109z m50 32 c0
-1 -33 -34 -72 -72 l-73 -70 70 73 c64 67 75 77 75 69z"/>
<path d="M5390 3945 c-24 -25 -42 -45 -39 -45 3 0 25 20 49 45 24 25 42 45 39
45 -3 0 -25 -20 -49 -45z"/>
<path d="M5245 3808 l-40 -43 43 40 c39 36 47 45 39 45 -2 0 -21 -19 -42 -42z"/>
<path d="M6740 4107 c-8 -7 -24 -24 -35 -37 -12 -15 -4 -11 18 9 33 31 42 42
35 41 -2 0 -10 -6 -18 -13z"/>
<path d="M6669 4023 c-13 -16 -12 -17 4 -4 16 13 21 21 13 21 -2 0 -10 -8 -17
-17z"/>
<path d="M6634 3978 l-19 -23 23 19 c21 18 27 26 19 26 -2 0 -12 -10 -23 -22z"/>
<path d="M6569 3893 c-13 -16 -12 -17 4 -4 9 7 17 15 17 17 0 8 -8 3 -21 -13z"/>
<path d="M6524 3838 l-19 -23 23 19 c12 11 22 21 22 23 0 8 -8 2 -26 -19z"/>
<path d="M3870 8996 c0 -6 217 -197 246 -216 12 -8 67 -51 121 -95 55 -44 113
-90 130 -103 105 -79 157 -118 228 -169 44 -31 94 -67 110 -80 17 -13 35 -27
40 -31 82 -63 418 -285 565 -374 41 -25 154 -95 250 -155 97 -60 218 -133 270
-163 52 -29 157 -91 234 -137 l138 -83 67 37 c85 47 100 60 78 69 -9 3 -14 11
-10 17 3 5 1 7 -5 3 -6 -3 -37 11 -69 32 -102 68 -284 186 -418 272 -71 45
-149 96 -173 112 -24 15 -48 25 -54 22 -6 -4 -8 -3 -5 3 3 5 -6 19 -21 30 -64
47 -351 227 -522 327 -278 163 -410 240 -465 271 -27 16 -106 62 -175 103 -69
41 -213 123 -320 182 -243 133 -240 132 -240 126z"/>
<path d="M3475 8834 c67 -55 233 -184 279 -215 216 -150 448 -310 507 -349 20
-14 99 -67 174 -118 75 -50 141 -89 147 -86 6 4 8 3 5 -3 -5 -8 124 -90 283
-179 30 -17 102 -58 160 -91 120 -68 236 -130 435 -233 219 -113 477 -251 506
-270 25 -18 27 -17 104 24 43 22 80 46 82 51 2 6 -52 41 -119 79 -68 38 -159
89 -203 114 -44 24 -132 75 -195 112 -394 232 -751 434 -906 512 -38 20 -144
77 -233 127 -90 50 -169 91 -177 91 -7 0 -16 5 -19 11 -4 6 -59 36 -124 68
-115 58 -177 91 -341 181 -47 26 -120 64 -163 84 -43 21 -108 55 -145 77 -76
44 -102 50 -57 13z"/>
<path d="M6636 8749 c89 -106 388 -420 611 -639 258 -256 829 -804 943 -906
l55 -49 -54 60 c-111 122 -635 664 -748 774 -65 63 -221 216 -348 340 -208
205 -510 481 -459 420z"/>
<path d="M3046 8679 c3 -6 25 -25 49 -42 23 -18 91 -70 151 -117 384 -302 785
-540 1359 -807 88 -41 185 -85 215 -98 30 -12 98 -43 150 -68 52 -24 154 -71
225 -104 366 -169 445 -206 445 -215 0 -5 4 -7 9 -3 6 3 41 -10 79 -28 l70
-33 88 44 87 44 -31 15 c-21 10 -29 20 -25 31 4 13 3 14 -5 4 -7 -10 -86 26
-353 163 -833 427 -1924 961 -2167 1061 -46 20 -145 64 -219 99 -73 35 -131
59 -127 54z"/>
<path d="M2740 8536 c0 -3 70 -52 210 -146 122 -82 286 -179 485 -286 50 -26
117 -63 150 -81 33 -18 80 -43 105 -56 25 -12 47 -25 50 -28 3 -3 28 -17 55
-31 28 -13 98 -50 156 -80 147 -79 678 -345 834 -419 119 -56 325 -146 676
-293 l136 -58 83 42 84 42 -48 21 c-34 14 -44 23 -34 29 9 6 7 8 -8 4 -13 -4
-74 19 -175 65 -194 89 -305 140 -494 224 -393 176 -511 232 -940 445 -253
125 -507 251 -565 280 -122 60 -271 126 -490 215 -85 35 -181 75 -212 89 -32
14 -58 24 -58 22z"/>
<path d="M2375 8331 c23 -22 364 -226 495 -296 47 -25 108 -58 135 -73 118
-67 214 -119 275 -150 36 -18 117 -60 180 -93 264 -140 744 -343 1255 -531
105 -38 255 -93 335 -123 80 -29 181 -67 226 -83 l80 -30 93 38 c51 21 95 40
97 43 3 2 -18 14 -46 26 -28 12 -48 26 -45 30 3 5 -5 7 -17 3 -16 -4 -19 -2
-13 8 5 9 4 11 -4 6 -16 -10 -73 13 -64 27 3 6 1 7 -6 3 -13 -8 -46 4 -266 97
-77 32 -176 74 -220 92 -91 38 -354 150 -465 200 -156 69 -484 207 -725 305
-137 56 -286 117 -330 135 -44 19 -141 57 -215 85 -74 28 -155 60 -180 70 -25
11 -90 36 -145 55 -55 20 -122 45 -150 56 -62 23 -231 88 -265 101 -16 6 -22
6 -15 -1z"/>
<path d="M2165 8013 c114 -74 492 -275 650 -345 33 -15 101 -46 150 -69 50
-22 101 -45 115 -49 14 -5 72 -29 130 -55 202 -90 500 -206 510 -200 5 3 10 2
10 -2 0 -8 87 -44 117 -49 6 -1 41 -14 77 -28 65 -26 553 -187 809 -267 75
-23 137 -46 137 -50 0 -4 10 -5 22 -1 14 3 19 1 14 -6 -5 -8 -2 -10 8 -6 8 3
52 -6 97 -21 l81 -27 107 42 c58 23 109 46 114 51 4 5 4 7 1 5 -3 -3 -36 7
-72 21 -37 14 -116 42 -177 63 -60 21 -256 91 -435 155 -337 121 -505 180
-625 220 -38 13 -115 39 -170 58 -55 19 -163 55 -240 80 -77 25 -241 82 -365
127 -124 45 -376 133 -560 197 -301 103 -489 168 -545 188 -11 4 7 -11 40 -32z"/>
<path d="M1800 7802 c0 -15 255 -154 466 -252 74 -35 521 -215 839 -337 72
-28 255 -89 565 -188 150 -48 470 -137 825 -230 77 -20 171 -45 208 -55 l68
-18 107 38 c175 61 166 55 97 75 -33 10 -114 35 -180 56 -66 20 -192 59 -280
84 -88 26 -209 63 -270 82 -110 34 -456 140 -980 299 -154 47 -356 109 -450
139 -386 122 -524 165 -827 254 -75 23 -148 45 -162 51 -14 5 -26 6 -26 2z"/>
<path d="M1517 7539 c14 -13 400 -188 540 -245 491 -199 670 -264 1143 -414
245 -77 594 -162 960 -234 276 -54 240 -54 405 0 103 34 141 50 128 55 -11 4
-255 66 -544 139 -288 72 -609 156 -714 185 -104 30 -233 65 -285 79 -127 33
-298 82 -505 146 -173 54 -1141 302 -1128 289z"/>
<path d="M1271 7101 c60 -39 601 -228 849 -296 36 -10 84 -24 106 -31 66 -21
352 -91 629 -154 50 -11 101 -23 115 -27 88 -22 333 -71 383 -77 27 -4 53 -8
56 -10 8 -5 344 -56 418 -63 40 -4 81 2 170 26 270 73 335 94 320 102 -8 5
-68 18 -133 28 -123 21 -204 36 -384 70 -352 67 -454 85 -725 131 -300 51
-458 78 -505 85 -14 2 -88 15 -165 29 -77 14 -223 39 -325 57 -102 17 -194 33
-205 35 -33 7 -188 33 -224 38 -111 16 -363 58 -381 63 -12 4 -12 3 1 -6z"/>
<path d="M1095 6692 c8 -9 154 -55 260 -82 17 -5 107 -31 200 -60 156 -47 484
-131 563 -145 18 -3 64 -12 102 -20 38 -8 82 -17 97 -19 16 -2 62 -10 103 -16
41 -6 91 -16 110 -20 19 -5 57 -11 83 -14 27 -3 52 -8 55 -10 4 -2 31 -7 60
-10 30 -3 84 -11 120 -16 75 -11 229 -31 252 -32 16 -1 426 88 570 123 47 12
90 26 95 31 7 8 6 9 -2 4 -6 -3 -42 -2 -80 4 -150 23 -420 62 -448 65 -59 8
-191 26 -250 35 -33 5 -90 12 -127 15 -37 3 -84 8 -105 10 -64 8 -334 34 -413
40 -41 3 -118 10 -170 15 -106 11 -284 27 -375 35 -169 13 -201 16 -215 20 -8
2 -49 7 -90 10 -41 3 -82 8 -90 10 -8 2 -46 6 -85 9 -126 11 -190 17 -210 23
-14 4 -17 2 -10 -5z"/>
<path d="M1035 6275 c22 -10 381 -98 550 -136 99 -21 198 -44 220 -49 144 -36
175 -39 219 -19 50 22 130 34 321 50 77 6 192 20 255 31 151 25 299 48 319 49
9 0 5 4 -9 8 -32 10 -272 21 -565 26 -121 3 -249 7 -285 10 -74 5 -266 12
-655 20 -148 3 -295 8 -325 10 -30 2 -50 2 -45 0z"/>
<path d="M2405 6041 c-126 -7 -152 -17 -213 -86 -100 -114 -150 -317 -122
-498 24 -153 65 -242 149 -320 46 -44 54 -47 103 -47 29 -1 78 -3 108 -5 154
-12 220 -13 225 -5 3 5 -15 30 -39 57 -90 96 -137 201 -160 352 -29 196 10
367 115 509 l40 52 -48 -2 c-26 -1 -97 -4 -158 -7z"/>
<path d="M1809 5956 c-2 -2 -150 -7 -329 -11 -179 -4 -347 -8 -375 -9 -27 -2
-86 -4 -130 -5 -86 -2 -86 -13 0 -25 55 -8 58 -9 160 -30 39 -9 113 -23 165
-32 52 -9 104 -18 115 -20 11 -2 40 -7 65 -10 55 -7 298 -43 310 -47 5 -1 31
42 58 96 l48 97 -42 0 c-22 0 -43 -2 -45 -4z"/>
<path d="M1690 5668 c-47 -3 -128 -9 -180 -12 -52 -4 -108 -9 -125 -11 -16 -3
-73 -7 -125 -10 -52 -3 -106 -7 -120 -10 -14 -3 -54 -7 -90 -11 -36 -3 -90 -9
-120 -13 l-55 -7 65 -7 c67 -8 128 -18 265 -42 44 -8 134 -22 200 -30 190 -24
198 -25 230 -30 17 -2 54 -7 84 -10 29 -3 56 -7 60 -9 3 -2 5 35 3 82 -5 141
6 128 -92 120z"/>
<path d="M1625 5379 c-158 -27 -357 -69 -609 -128 -71 -17 -130 -32 -132 -33
-1 -2 84 -3 189 -2 106 0 251 -3 322 -7 72 -4 210 -10 307 -14 l178 -7 -27 48
c-15 27 -37 76 -48 109 l-20 61 -160 -27z"/>
<path d="M1840 5106 c-125 -36 -408 -145 -645 -246 -66 -29 -155 -66 -197 -84
-77 -31 -99 -47 -55 -39 12 2 76 12 142 23 184 29 355 59 405 70 51 12 54 12
200 39 58 11 123 22 145 26 182 26 465 87 465 101 0 2 -46 4 -103 2 -96 -1
-106 0 -154 26 -28 16 -69 45 -90 66 l-38 38 -75 -22z"/>
<path d="M2753 5055 c-54 -54 -40 -75 54 -75 44 0 103 38 103 66 0 17 -41 35
-90 39 -28 2 -41 -4 -67 -30z"/>
<path d="M3042 5032 c-27 -59 -97 -134 -151 -162 -95 -48 -170 -34 -264 50
l-48 43 -102 -48 c-110 -53 -357 -179 -502 -258 -49 -26 -146 -75 -214 -108
-203 -98 -744 -370 -766 -385 -27 -19 -9 -18 93 7 48 11 152 36 232 55 240 57
511 134 750 214 63 21 214 70 335 110 121 40 254 86 295 102 246 98 312 125
400 165 36 17 94 44 130 60 158 72 325 131 358 126 32 -5 32 -6 12 -20 -17
-12 -24 -13 -38 -1 -15 11 -16 11 -4 -3 10 -14 10 -18 -4 -23 -9 -3 -20 -3
-25 0 -5 3 -8 0 -7 -7 2 -6 -3 -14 -11 -17 -9 -3 -11 0 -6 8 5 9 4 11 -4 6 -6
-4 -9 -11 -6 -15 2 -5 -129 -77 -293 -160 -164 -83 -355 -184 -424 -224 -68
-40 -250 -144 -404 -231 -295 -168 -568 -329 -629 -370 -19 -14 -41 -26 -47
-28 -8 -3 -2 -17 15 -39 14 -19 36 -56 47 -82 l21 -47 32 14 c158 67 339 146
417 181 52 24 190 84 305 135 216 95 449 210 615 303 52 29 176 97 275 152 99
54 216 119 260 145 157 91 215 121 227 114 6 -4 8 -3 5 3 -8 13 20 26 35 16 6
-3 8 -2 5 4 -4 6 5 15 19 22 14 6 23 7 19 2 -3 -5 0 -13 6 -17 8 -4 9 -3 5 4
-4 7 -2 12 4 12 6 0 8 4 5 10 -5 8 85 61 102 59 4 0 9 3 10 8 3 9 -234 52
-437 79 -25 3 -94 14 -155 24 -60 10 -132 21 -160 25 -27 3 -63 8 -80 11 -74
10 -201 24 -215 24 -10 0 -25 -20 -38 -48z"/>
<path d="M4149 4911 c11 -7 11 -9 0 -14 -8 -3 -9 -6 -3 -6 6 -1 17 6 24 14 10
13 9 15 -11 15 -17 0 -20 -3 -10 -9z"/>
<path d="M4089 4877 c6 -6 2 -17 -12 -29 l-22 -20 24 16 c28 17 36 43 15 43
-10 0 -11 -4 -5 -10z"/>
<path d="M4520 4759 c0 -11 4 -18 10 -14 5 3 7 12 3 20 -7 21 -13 19 -13 -6z"/>
<path d="M4475 4751 c-3 -5 0 -13 5 -16 7 -5 5 -12 -7 -22 -17 -13 -16 -13 4
-4 15 8 20 17 16 31 -6 22 -9 24 -18 11z"/>
<path d="M4896 4679 c-14 -11 -25 -26 -23 -32 1 -7 -7 -12 -18 -12 -11 0 -20
-7 -21 -15 -2 -29 -4 -32 -17 -22 -9 8 -22 3 -48 -21 -19 -18 -28 -26 -19 -19
25 19 35 14 16 -7 -10 -10 -14 -21 -9 -24 4 -3 48 32 96 78 49 45 84 86 79 89
-5 3 -21 -3 -36 -15z m-102 -120 c-31 -33 -47 -40 -19 -9 10 11 15 20 10 20
-4 0 -2 7 5 15 7 8 17 12 22 9 5 -3 -3 -19 -18 -35z"/>
<path d="M4321 4646 c-9 -11 -9 -16 1 -22 7 -4 10 -4 6 1 -4 4 -3 14 3 22 6 7
9 13 6 13 -2 0 -10 -6 -16 -14z"/>
<path d="M5376 4628 c3 -5 10 -6 15 -3 13 9 11 12 -6 12 -8 0 -12 -4 -9 -9z"/>
<path d="M4324 4598 l-19 -23 23 19 c21 18 27 26 19 26 -2 0 -12 -10 -23 -22z"/>
<path d="M4279 4563 c-13 -16 -12 -17 4 -4 16 13 21 21 13 21 -2 0 -10 -8 -17
-17z"/>
<path d="M5273 4555 c-20 -18 -22 -23 -9 -18 15 5 17 3 11 -8 -5 -8 -1 -7 12
4 11 9 20 24 20 32 0 20 -1 19 -34 -10z"/>
<path d="M4233 4533 c0 -9 4 -10 14 -2 7 6 13 12 13 14 0 1 -6 2 -13 2 -8 0
-14 -6 -14 -14z"/>
<path d="M4671 4501 c-29 -25 -40 -40 -32 -45 6 -4 10 -3 9 2 -2 6 15 26 37
46 22 19 38 35 35 35 -3 0 -25 -17 -49 -38z"/>
<path d="M4706 4483 c-4 -5 -12 -8 -18 -8 -6 0 -12 -8 -14 -19 -2 -16 0 -16
22 5 13 12 24 24 24 26 0 5 -6 3 -14 -4z"/>
<path d="M5167 4460 c-8 -11 -16 -18 -18 -16 -2 3 -38 -26 -78 -63 -59 -53
-73 -71 -67 -86 6 -16 12 -13 51 25 24 24 42 47 39 52 -9 15 7 30 20 19 9 -8
22 -1 47 26 19 20 28 33 22 29 -16 -9 -17 6 -1 22 7 7 9 12 6 12 -4 0 -13 -9
-21 -20z m-18 -46 c-12 -13 -26 -21 -31 -18 -12 8 18 41 37 41 12 0 10 -6 -6
-23z m-65 -42 c3 -5 -12 -26 -34 -47 -45 -44 -50 -22 -5 25 32 33 32 33 39 22z"/>
<path d="M5129 4413 c-13 -16 -12 -17 4 -4 16 13 21 21 13 21 -2 0 -10 -8 -17
-17z"/>
<path d="M4119 4443 c-13 -16 -12 -17 4 -4 16 13 21 21 13 21 -2 0 -10 -8 -17
-17z"/>
<path d="M4589 4433 c-13 -16 -18 -23 -10 -16 7 6 19 10 25 9 6 -2 7 -1 3 2
-4 2 -3 10 4 18 21 26 3 14 -22 -13z"/>
<path d="M4633 4423 c0 -9 4 -10 14 -2 7 6 13 12 13 14 0 1 -6 2 -13 2 -8 0
-14 -6 -14 -14z"/>
<path d="M5596 4431 c-4 -5 -2 -12 3 -15 5 -4 12 -2 15 3 4 5 2 12 -3 15 -5 4
-12 2 -15 -3z"/>
<path d="M4596 4393 c-4 -5 -12 -8 -17 -8 -5 0 -9 -4 -10 -10 0 -5 -6 -17 -12
-25 -6 -8 3 -2 21 14 18 17 32 31 32 33 0 5 -6 3 -14 -4z"/>
<path d="M6016 4311 c-23 -24 -31 -38 -22 -38 20 0 81 63 68 70 -5 4 -25 -11
-46 -32z"/>
<path d="M4504 4308 l-19 -23 23 19 c12 11 22 21 22 23 0 8 -8 2 -26 -19z"/>
<path d="M5808 4097 c-74 -72 -121 -120 -104 -106 17 15 37 24 45 21 9 -3 12
0 8 10 -6 18 86 114 100 105 5 -4 31 16 57 42 26 27 43 51 38 55 -5 3 -70 -54
-144 -127z m142 120 c0 -2 -10 -12 -22 -23 l-23 -19 19 23 c18 21 26 27 26 19z
m-50 -50 c0 -2 -10 -12 -22 -23 l-23 -19 19 23 c18 21 26 27 26 19z"/>
<path d="M5367 4203 c-4 -3 -7 -11 -7 -17 0 -6 5 -5 12 2 6 6 9 14 7 17 -3 3
-9 2 -12 -2z"/>
<path d="M6526 4152 l-19 -27 24 22 c12 12 21 24 18 27 -2 2 -13 -8 -23 -22z"/>
<path d="M6142 4163 c2 -4 -23 -32 -54 -62 -32 -29 -55 -58 -52 -63 7 -10 54
30 51 42 -1 5 16 23 37 42 27 24 36 37 28 42 -7 4 -11 4 -10 -1z m-62 -86 c0
-2 -10 -12 -22 -23 l-23 -19 19 23 c18 21 26 27 26 19z"/>
<path d="M5299 4144 c-7 -9 -6 -12 6 -10 22 3 40 23 20 23 -8 0 -20 -6 -26
-13z"/>
<path d="M5990 3995 c-13 -14 -20 -25 -15 -25 5 0 -9 -15 -30 -33 -26 -22 -33
-34 -22 -34 9 0 14 3 12 7 -2 4 15 23 39 42 23 20 43 43 43 52 0 20 1 21 -27
-9z m20 1 c0 -2 -8 -10 -17 -17 -16 -13 -17 -12 -4 4 13 16 21 21 21 13z"/>
<path d="M6361 3956 c-7 -8 -8 -17 -3 -20 6 -3 15 1 21 8 7 8 8 17 3 20 -6 3
-15 -1 -21 -8z"/>
<path d="M1372 3924 c-223 -111 -178 -433 70 -494 68 -17 140 6 207 66 68 61
95 113 95 184 0 192 -206 327 -372 244z m153 -199 c35 -34 34 -86 -2 -115 -50
-39 -117 -1 -117 66 0 68 72 97 119 49z"/>
<path d="M5649 3913 l-24 -28 28 24 c15 14 27 26 27 28 0 8 -8 1 -31 -24z"/>
<path d="M5019 3883 l-24 -28 28 24 c15 14 27 26 27 28 0 8 -8 1 -31 -24z"/>
<path d="M5589 3853 l-24 -28 28 24 c15 14 27 26 27 28 0 8 -8 1 -31 -24z"/>
<path d="M6296 3858 c3 -5 10 -6 15 -3 13 9 11 12 -6 12 -8 0 -12 -4 -9 -9z"/>
<path d="M6259 3833 c-13 -16 -12 -17 4 -4 9 7 17 15 17 17 0 8 -8 3 -21 -13z"/>
<path d="M6209 3773 c-13 -16 -12 -17 4 -4 16 13 21 21 13 21 -2 0 -10 -8 -17
-17z"/>
<path d="M5756 3711 l-30 -36 34 32 c19 18 32 34 29 36 -2 2 -17 -12 -33 -32z"/>
<path d="M5694 3648 l-19 -23 23 19 c12 11 22 21 22 23 0 8 -8 2 -26 -19z"/>
<path d="M5634 3578 l-19 -23 23 19 c12 11 22 21 22 23 0 8 -8 2 -26 -19z"/>
<path d="M5589 3523 c-13 -16 -12 -17 4 -4 9 7 17 15 17 17 0 8 -8 3 -21 -13z"/>
<path d="M5544 3468 l-19 -23 23 19 c21 18 27 26 19 26 -2 0 -12 -10 -23 -22z"/>
<path d="M5509 3423 c-13 -16 -12 -17 4 -4 16 13 21 21 13 21 -2 0 -10 -8 -17
-17z"/>
<path d="M1315 3408 c-3 -13 -4 -42 -3 -65 3 -42 3 -43 41 -43 l37 0 0 -1131
0 -1130 55 3 55 3 0 1127 0 1128 50 0 50 0 0 55 c0 30 -2 55 -4 55 -2 0 -21
-7 -42 -16 -50 -21 -135 -14 -192 15 l-42 21 -5 -22z"/>
<path d="M5474 3378 l-19 -23 23 19 c12 11 22 21 22 23 0 8 -8 2 -26 -19z"/>
<path d="M6269 3273 c-13 -16 -12 -17 4 -4 9 7 17 15 17 17 0 8 -8 3 -21 -13z"/>
<path d="M5259 3103 c-13 -16 -12 -17 4 -4 9 7 17 15 17 17 0 8 -8 3 -21 -13z"/>
</g>
</svg>
