<?xml version="1.0" standalone="no"?>
<!DOCTYPE svg PUBLIC "-//W3C//DTD SVG 20010904//EN"
 "http://www.w3.org/TR/2001/REC-SVG-20010904/DTD/svg10.dtd">
<svg version="1.0" xmlns="http://www.w3.org/2000/svg"
 width="1024.000000pt" height="1024.000000pt" viewBox="0 0 1024.000000 1024.000000"
 preserveAspectRatio="xMidYMid meet">

<g transform="translate(0.000000,1024.000000) scale(0.100000,-0.100000)"
fill="#000000" stroke="none">
<path d="M4740 7840 c-420 -35 -858 -207 -1156 -455 -287 -239 -481 -502 -633
-857 -58 -135 -91 -244 -127 -419 -36 -172 -44 -486 -19 -675 53 -398 168
-684 399 -994 338 -453 774 -735 1315 -851 137 -30 160 -32 361 -33 324 -2
517 37 794 158 l79 35 32 -52 31 -52 -71 -42 c-38 -24 -74 -44 -79 -46 -6 -2
10 -31 33 -65 l44 -62 36 22 c20 12 95 60 166 106 72 47 186 121 255 165 179
115 170 103 126 176 -21 34 -39 61 -42 61 -2 0 -26 -16 -53 -35 -26 -19 -51
-35 -53 -35 -7 0 -78 108 -78 118 0 4 37 35 83 69 307 228 577 598 705 968
110 316 137 696 76 1060 -58 349 -225 717 -446 980 -343 408 -809 671 -1313
739 -140 19 -343 26 -465 16z m495 -184 c316 -58 577 -174 850 -379 336 -252
616 -692 701 -1102 78 -373 63 -724 -42 -1045 -29 -86 -116 -273 -171 -364
-61 -102 -165 -236 -253 -326 -94 -97 -92 -93 15 45 105 135 159 219 221 350
135 284 192 578 181 925 -22 658 -365 1235 -937 1577 -164 99 -388 182 -591
219 -98 18 -457 27 -509 12 -25 -7 -25 -7 -22 47 4 49 6 54 30 59 61 10 440
-2 527 -18z m-1035 -125 c0 -5 -24 -20 -52 -35 -150 -73 -351 -209 -484 -325
-235 -205 -447 -531 -554 -849 -57 -171 -82 -319 -87 -522 -9 -336 42 -574
187 -875 105 -218 212 -368 390 -546 375 -377 816 -562 1330 -558 281 2 502
58 772 196 62 32 116 59 120 61 7 3 48 -56 48 -68 0 -3 -37 -26 -83 -52 -323
-185 -653 -262 -1012 -238 -150 10 -198 18 -323 49 -367 94 -664 270 -942 558
-339 350 -528 758 -559 1207 -38 557 139 1072 517 1505 162 184 429 378 645
467 94 39 87 37 87 25z m1030 -71 c339 -69 624 -218 868 -454 371 -358 554
-795 554 -1326 1 -387 -93 -723 -280 -1005 -88 -134 -195 -248 -402 -429 -27
-24 -30 -26 -14 -6 30 37 107 160 103 164 -2 2 -35 -14 -74 -37 -150 -88 -449
-197 -541 -197 -24 0 -28 -4 -134 -149 -38 -52 -72 -96 -74 -99 -3 -2 -34 -7
-70 -11 l-64 -7 28 41 c199 291 271 487 269 730 -1 66 -4 147 -8 180 l-6 60
-19 -42 c-10 -23 -27 -75 -37 -115 l-18 -73 2 73 c2 74 -4 87 -24 51 -11 -21
-10 -43 5 -214 3 -33 -4 -5 -16 62 -24 134 -28 137 -68 57 -27 -56 -29 -105
-6 -212 9 -40 15 -99 15 -130 l-2 -57 -7 70 c-4 39 -16 102 -28 140 -11 39
-22 84 -25 100 l-3 30 -18 -39 c-26 -58 -31 -123 -12 -185 9 -30 14 -56 13
-58 -5 -5 -57 119 -58 137 0 8 -7 -5 -15 -30 -15 -45 -13 -92 5 -180 12 -54
14 -147 4 -153 -5 -3 -7 15 -7 40 1 25 -5 71 -14 102 -8 31 -14 70 -14 86 l1
30 -14 -25 c-15 -29 -52 -173 -70 -275 -7 -38 -14 -61 -14 -50 -1 26 -46 223
-67 294 -8 29 -19 50 -24 45 -16 -18 -29 -111 -25 -184 l4 -75 -13 95 c-8 52
-12 122 -9 155 4 46 -1 77 -20 135 -14 41 -25 65 -26 53 -1 -12 -13 -59 -27
-104 -14 -46 -30 -112 -34 -148 -8 -63 -8 -63 -6 -11 1 30 11 109 21 176 l18
121 -24 58 -24 57 -12 -30 c-7 -17 -22 -63 -33 -104 -20 -71 -20 -54 1 67 12
67 7 107 -17 143 -22 34 -34 13 -34 -60 0 -69 -15 -85 -19 -20 -3 57 -15 116
-34 161 -14 34 -15 34 -22 -60 -27 -336 8 -501 153 -735 37 -60 78 -126 91
-148 l24 -39 -56 5 c-42 3 -64 11 -83 29 -28 26 -149 171 -163 196 -5 9 -47
23 -106 35 -138 27 -274 72 -387 128 -117 58 -116 46 4 -63 46 -41 101 -92
123 -112 l40 -37 -60 33 c-66 36 -171 103 -224 143 -19 14 -38 23 -43 20 -5
-3 -7 -1 -6 4 2 5 -31 39 -72 74 -240 205 -438 562 -497 893 -14 81 -18 153
-17 380 1 261 3 288 26 400 86 402 273 732 560 990 95 86 283 211 413 275 131
64 337 132 518 170 124 26 157 30 258 26 63 -3 162 -14 219 -26z m67 -2722
c-3 -7 -5 -2 -5 12 0 14 2 19 5 13 2 -7 2 -19 0 -25z m-680 -280 c-2 -13 -4
-5 -4 17 -1 22 1 32 4 23 2 -10 2 -28 0 -40z m90 -240 c-3 -8 -6 -5 -6 6 -1
11 2 17 5 13 3 -3 4 -12 1 -19z m360 -110 c-3 -8 -6 -5 -6 6 -1 11 2 17 5 13
3 -3 4 -12 1 -19z"/>
<path d="M4930 7308 c1 -108 4 -148 15 -162 8 -10 12 -23 8 -29 -3 -6 -2 -7 4
-4 6 4 109 -98 229 -226 120 -127 244 -258 275 -291 53 -56 58 -59 74 -43 22
22 22 22 53 -15 15 -18 108 -121 207 -228 99 -108 206 -224 237 -259 l57 -63
78 25 c43 14 84 27 92 29 17 5 -44 78 -210 253 -68 72 -259 275 -424 450 -328
350 -674 705 -687 705 -4 0 -8 -64 -8 -142z"/>
<path d="M4759 7323 c-102 -104 -429 -460 -547 -597 -27 -31 -39 -53 -33 -60
5 -6 12 -32 15 -58 4 -27 11 -48 15 -48 5 0 149 144 321 320 171 176 317 317
323 313 5 -3 7 -1 4 4 -4 6 2 18 13 28 17 16 20 31 20 117 0 54 -3 98 -8 98
-4 0 -59 -53 -123 -117z"/>
<path d="M4695 6998 c-317 -322 -445 -455 -445 -465 0 -5 43 -55 96 -111 l97
-103 44 43 c25 24 126 130 225 236 l179 192 -2 200 c-1 110 -3 200 -3 200 -1
0 -87 -87 -191 -192z"/>
<path d="M4930 6947 l0 -169 128 -136 c71 -76 164 -176 208 -224 l79 -87 52
54 c28 30 64 70 79 90 l27 36 -123 124 c-68 68 -128 121 -133 118 -6 -3 -7 -1
-3 6 5 7 -36 56 -104 126 -66 69 -108 120 -104 127 4 6 3 8 -3 5 -6 -4 -20 5
-33 18 -13 13 -27 22 -32 19 -5 -3 -7 0 -6 8 2 7 -3 12 -10 10 -8 -1 -11 1 -8
6 2 4 1 14 -5 22 -5 10 -9 -47 -9 -153z"/>
<path d="M4787 6626 l-97 -104 0 -195 c0 -281 -3 -271 93 -375 45 -48 86 -90
93 -94 9 -6 12 97 13 432 1 242 0 440 -2 440 -2 0 -47 -47 -100 -104z"/>
<path d="M4925 6300 c0 -367 2 -427 14 -417 8 7 99 105 202 218 l188 207 -29
27 c-16 16 -27 33 -23 38 3 6 1 7 -4 4 -6 -4 -16 0 -23 8 -7 8 -16 12 -21 9
-5 -3 -8 -1 -7 4 3 9 -195 233 -264 299 l-33 32 0 -429z"/>
<path d="M4069 6552 c-61 -64 -345 -381 -418 -464 -18 -21 -32 -41 -30 -42 2
-2 40 -18 84 -35 44 -17 91 -38 104 -45 22 -12 26 -10 74 43 27 31 99 106 158
168 l109 112 0 166 c0 91 -4 165 -9 165 -5 0 -37 -30 -72 -68z"/>
<path d="M4190 6339 l0 -172 73 -76 c39 -42 161 -177 271 -300 l199 -223 22
24 c54 56 145 163 145 171 0 5 -22 32 -48 60 -27 29 -99 107 -161 174 -62 68
-118 120 -124 116 -5 -3 -7 -1 -3 5 8 14 -283 324 -297 315 -6 -4 -7 -1 -2 6
4 8 -4 24 -21 42 -51 53 -54 46 -54 -142z"/>
<path d="M5563 6470 c4 -18 7 -103 7 -189 l1 -156 132 -141 c132 -141 132
-142 157 -126 14 9 65 37 113 63 l88 46 -241 264 c-133 145 -246 266 -252 268
-7 2 -9 -8 -5 -29z"/>
<path d="M4580 6405 c-61 -62 -76 -72 -89 -63 -13 10 -14 10 -4 -2 10 -11 10
-17 -3 -31 -14 -16 -9 -25 76 -118 51 -56 93 -101 93 -101 1 0 4 88 5 195 2
107 2 195 0 195 -2 0 -37 -34 -78 -75z"/>
<path d="M5449 6388 c-41 -46 -139 -155 -219 -243 -240 -264 -310 -345 -310
-356 0 -5 30 -42 67 -82 36 -40 71 -78 78 -85 9 -10 33 12 115 100 56 62 130
142 164 178 34 36 89 96 124 133 l63 69 -2 184 c-1 101 -3 184 -4 184 -2 0
-36 -37 -76 -82z"/>
<path d="M4069 6153 c-41 -43 -103 -109 -138 -147 l-63 -68 54 -27 c58 -29
170 -102 203 -132 20 -18 20 -17 24 217 1 129 1 234 -1 234 -2 0 -37 -35 -79
-77z"/>
<path d="M4190 5920 l0 -201 56 -66 c78 -92 146 -199 183 -287 17 -41 31 -79
31 -85 0 -6 3 -11 8 -10 7 1 154 161 216 236 l29 34 -28 29 c-16 16 -33 26
-39 23 -6 -3 -8 -2 -3 2 8 10 -22 47 -33 40 -4 -3 -7 1 -6 8 0 7 -92 117 -206
245 l-208 233 0 -201z"/>
<path d="M5570 5907 l5 -162 34 -42 34 -42 82 77 82 77 -40 45 c-46 51 -197
210 -200 210 -1 0 0 -73 3 -163z"/>
<path d="M5419 5929 c-58 -63 -154 -167 -212 -232 l-107 -119 68 -74 67 -74
54 58 c30 31 96 99 145 151 l91 95 3 125 c6 207 14 202 -109 70z"/>
<path d="M3370 6007 c0 -25 72 -118 118 -152 26 -19 85 -51 132 -71 233 -100
372 -205 492 -374 121 -171 169 -341 152 -540 l-8 -95 -7 141 c-6 119 -12 156
-38 233 -17 50 -39 107 -48 126 l-18 34 0 -122 c0 -123 -26 -264 -46 -251 -5
3 -6 -2 -3 -10 4 -9 1 -16 -6 -16 -13 0 -12 7 15 110 20 75 23 224 6 288 -15
53 -50 114 -62 106 -5 -3 -7 1 -4 8 3 7 -11 31 -30 53 l-35 40 7 -40 c5 -22 8
-96 8 -165 0 -95 -4 -137 -18 -177 -10 -29 -23 -53 -28 -53 -12 0 -11 17 5 72
23 73 30 177 17 240 -14 64 -65 153 -83 142 -6 -4 -8 -3 -5 3 7 11 -11 31 -26
31 -5 0 -12 4 -15 8 -4 4 0 3 8 -1 29 -16 -17 29 -49 48 l-30 18 23 -53 c34
-76 46 -146 45 -251 l-1 -92 -14 99 c-7 54 -21 124 -30 155 -18 65 -52 124
-65 116 -5 -4 -6 0 -4 7 8 21 -92 88 -130 88 -14 0 -14 -3 -1 -27 21 -43 76
-202 75 -221 0 -9 -7 5 -15 31 -9 30 -19 45 -26 41 -6 -4 -8 -3 -5 4 10 15 -3
43 -16 35 -5 -3 -7 -1 -4 5 10 15 -3 43 -17 35 -6 -4 -4 2 4 12 8 10 10 16 3
12 -7 -4 -14 1 -18 13 -4 11 -10 18 -15 15 -5 -3 -12 0 -16 6 -4 8 -3 9 4 5 7
-4 12 -3 12 3 0 10 -19 26 -32 26 -3 0 -10 4 -15 9 -5 5 -2 6 7 2 24 -12 -42
43 -78 64 l-33 20 6 -22 c4 -13 20 -49 36 -82 28 -57 30 -88 5 -67 -7 6 -17 7
-21 3 -5 -4 -5 -1 -1 6 4 7 2 19 -4 27 -6 8 -27 42 -46 77 l-34 63 0 -95 c0
-79 4 -104 24 -145 28 -61 124 -167 186 -206 25 -16 42 -29 38 -29 -4 0 -30
14 -58 31 -28 17 -58 32 -68 33 -9 2 -16 7 -15 12 1 5 -13 25 -33 45 -19 19
-31 39 -27 44 5 4 3 5 -4 1 -8 -4 -18 5 -28 24 -8 16 -17 30 -18 30 -2 0 0
-34 4 -76 6 -65 12 -82 39 -115 17 -22 28 -44 24 -51 -5 -7 -3 -8 5 -3 8 4 25
-4 44 -23 41 -38 75 -55 160 -77 37 -10 66 -20 64 -22 -7 -7 -156 26 -185 41
-16 8 -33 12 -37 8 -3 -4 -5 0 -3 8 2 9 -4 14 -14 14 -11 -1 -15 5 -13 17 2
10 -1 22 -7 25 -6 4 -8 2 -4 -4 3 -6 2 -14 -4 -17 -6 -4 -9 -2 -8 2 2 5 -11
26 -28 45 l-32 36 5 -41 c3 -23 17 -67 31 -97 14 -30 24 -58 24 -62 -1 -5 1
-7 6 -6 4 1 35 -17 70 -39 70 -46 165 -73 258 -73 32 0 55 -3 52 -6 -3 -3 -46
-6 -94 -6 -68 0 -103 5 -149 22 -33 12 -68 22 -77 23 -9 1 -15 5 -12 8 2 4 0
10 -6 14 -6 4 -8 11 -4 16 3 5 0 8 -8 7 -7 -2 -12 3 -10 10 1 8 -2 11 -8 7 -6
-4 -17 -2 -24 5 -12 9 -13 5 -7 -22 37 -162 202 -258 421 -245 92 5 94 5 60
-10 -86 -38 -286 -10 -382 52 l-37 24 22 -41 c32 -61 114 -139 177 -169 75
-36 182 -59 282 -60 112 -2 56 -16 -68 -18 -67 -1 -110 5 -159 20 -87 27 -99
15 -41 -39 82 -76 195 -119 356 -138 l65 -7 -40 -9 c-51 -12 -153 -2 -222 21
-52 18 -53 18 -36 -1 9 -10 23 -16 30 -13 8 2 11 0 8 -5 -11 -18 157 -89 323
-136 53 -14 135 -37 181 -50 46 -13 86 -24 90 -24 4 0 -4 42 -17 93 -21 84
-23 111 -23 327 1 274 -12 380 -64 537 -103 308 -307 511 -670 667 -88 38
-186 82 -217 98 -65 32 -68 33 -68 15z m154 -428 c-2 -3 6 -20 17 -37 26 -43
24 -56 -2 -15 -12 18 -25 31 -29 28 -4 -3 -13 2 -20 10 -7 8 -9 15 -5 15 4 0
2 7 -5 15 -21 26 0 38 24 13 12 -13 21 -26 20 -29z m382 -499 c46 -54 157
-207 207 -285 39 -62 107 -190 75 -141 -7 10 -59 80 -116 155 -56 75 -137 184
-180 243 -42 58 -81 104 -86 100 -5 -3 -6 0 -2 6 4 6 -1 24 -11 39 -17 27 52
-45 113 -117z"/>
<path d="M6450 5987 c-36 -16 -117 -48 -180 -72 -217 -80 -343 -158 -469 -290
-224 -237 -293 -440 -292 -855 0 -215 -14 -354 -44 -442 -7 -21 -9 -38 -4 -38
11 0 157 46 320 100 103 35 317 128 262 114 -12 -2 -32 -7 -45 -10 -51 -13
-208 -16 -208 -5 0 6 19 11 48 11 128 1 303 74 392 165 l55 56 -50 -21 c-104
-45 -253 -62 -340 -40 -24 6 -19 8 30 9 168 3 292 48 381 136 33 33 66 75 72
93 l11 33 -30 -21 c-77 -56 -190 -74 -334 -55 l-70 9 125 7 c142 6 207 26 284
85 43 32 82 92 101 153 7 23 5 22 -41 -9 -87 -61 -185 -85 -284 -71 -42 6 -40
7 38 14 100 9 171 34 236 84 65 50 85 79 101 147 12 49 11 56 -1 45 -7 -6 -11
-16 -7 -23 3 -6 3 -8 -2 -4 -5 5 -22 -3 -39 -16 -68 -51 -142 -79 -241 -90
-46 -5 -44 -4 21 14 39 10 91 28 116 40 53 25 123 91 149 142 22 43 36 163 16
137 -55 -72 -122 -131 -199 -173 -71 -39 -70 -31 2 18 73 48 125 102 164 168
31 53 55 194 39 230 -8 20 -13 16 -47 -45 -22 -41 -42 -65 -48 -61 -7 4 -8 2
-4 -5 5 -7 -10 -35 -35 -69 -62 -83 -64 -84 -30 -14 18 34 29 67 26 73 -4 5
-2 8 5 7 10 -3 76 130 68 137 -9 9 -108 -57 -102 -67 4 -7 3 -8 -4 -4 -7 4
-20 -7 -33 -28 -12 -20 -24 -34 -28 -31 -4 2 -7 -6 -7 -18 1 -12 -3 -21 -9
-20 -5 1 -11 -8 -11 -20 -2 -24 -55 -169 -60 -164 -5 5 42 176 65 234 l20 52
-29 -11 c-17 -5 -27 -15 -23 -21 3 -5 1 -7 -5 -4 -14 9 -43 -3 -36 -14 3 -5
-1 -6 -9 -3 -34 13 -89 -116 -105 -246 l-9 -75 -2 85 c-1 76 11 147 35 205 8
20 8 20 -21 1 -76 -48 -113 -100 -134 -192 -17 -70 -15 -180 3 -237 17 -55 4
-54 -21 1 -22 50 -23 237 -1 305 9 26 14 47 13 47 -2 0 -15 -11 -29 -24 -29
-26 -35 -45 -8 -25 15 11 15 11 4 -1 -7 -8 -18 -15 -25 -15 -18 0 -64 -76 -83
-139 -26 -85 -24 -213 5 -298 26 -75 24 -112 -3 -60 -10 19 -15 40 -12 48 3 8
2 13 -3 10 -5 -3 -12 4 -15 17 -13 43 -18 213 -8 265 11 63 5 58 -36 -23 -61
-122 -91 -252 -93 -410 l-1 -90 -10 55 c-12 72 -4 218 17 299 35 137 89 230
204 353 110 117 208 180 428 272 124 52 172 91 212 170 13 26 21 49 20 50 -2
2 -33 -10 -69 -27z m-359 -769 c-30 -48 -382 -528 -386 -528 -28 0 266 433
365 538 31 33 45 27 21 -10z m-398 -553 c-3 -9 -8 -14 -10 -11 -3 3 -2 9 2 15
9 16 15 13 8 -4z"/>
<path d="M4928 5133 c1 -318 5 -585 8 -593 3 -10 19 11 43 57 42 79 104 167
160 226 l36 38 3 280 c3 233 1 284 -11 303 -33 49 -209 236 -218 230 -5 -3 -9
-2 -8 3 3 17 -1 33 -8 33 -5 0 -7 -260 -5 -577z"/>
<path d="M5561 5620 c2 -44 6 -80 9 -80 3 0 14 19 24 43 11 23 22 46 24 51 3
5 -1 5 -8 1 -9 -5 -11 -4 -6 3 7 12 -22 61 -37 62 -5 0 -7 -36 -6 -80z"/>
<path d="M4815 5604 c-38 -43 -82 -93 -97 -112 l-28 -35 0 -284 0 -284 63 -72
c35 -40 77 -97 93 -127 l29 -54 8 90 c4 49 6 284 5 522 l-3 434 -70 -78z"/>
<path d="M5505 5665 c-6 -7 -63 -70 -128 -139 l-119 -125 68 -80 c38 -44 71
-77 75 -73 4 4 21 40 39 81 18 41 45 95 60 120 26 43 27 51 23 136 -2 49 -5
91 -6 92 -2 1 -7 -4 -12 -12z"/>
<path d="M3410 5476 c0 -2 8 -10 18 -17 15 -13 16 -12 3 4 -13 16 -21 21 -21
13z"/>
<path d="M6459 5463 c-13 -16 -12 -17 4 -4 9 7 17 15 17 17 0 8 -8 3 -21 -13z"/>
<path d="M3459 5427 c6 -8 7 -18 3 -22 -4 -5 -1 -5 6 -1 10 6 10 11 1 22 -6 8
-14 14 -16 14 -3 0 0 -6 6 -13z"/>
<path d="M4599 5353 c-29 -32 -65 -75 -80 -96 -26 -36 -27 -40 -13 -72 8 -19
14 -51 15 -72 2 -61 11 -77 71 -126 l57 -47 3 235 c2 129 2 235 2 235 -1 0
-26 -26 -55 -57z"/>
<path d="M5216 5269 c-3 -63 -6 -171 -5 -241 l2 -127 31 32 c17 18 52 48 77
67 l47 35 4 80 c5 76 4 82 -23 120 -16 22 -51 64 -78 94 l-48 54 -7 -114z"/>
<path d="M5931 5304 c0 -11 3 -14 6 -6 3 7 2 16 -1 19 -3 4 -6 -2 -5 -13z"/>
<path d="M3596 4706 c21 -27 30 -31 39 -16 3 5 -8 16 -26 25 l-31 17 18 -26z"/>
<path d="M6295 3652 c-77 -49 -205 -131 -285 -184 -80 -52 -164 -105 -187
-117 l-42 -21 41 -60 c23 -33 45 -60 48 -60 9 0 206 128 447 289 l201 135 -36
53 c-19 29 -38 53 -41 53 -3 0 -69 -40 -146 -88z"/>
<path d="M6258 3331 c-175 -115 -323 -211 -330 -213 -8 -3 5 -28 36 -72 l48
-67 25 16 c14 9 28 13 32 8 4 -4 137 -204 295 -443 505 -764 452 -690 526
-727 89 -45 158 -52 247 -25 118 36 197 136 218 275 9 58 16 47 -350 612 -66
102 -145 225 -176 273 -30 48 -100 156 -154 241 -108 169 -104 152 -41 195 19
12 19 14 -6 57 -54 91 -16 104 -370 -130z m269 -228 c25 -11 50 -39 81 -87 25
-39 169 -257 319 -485 151 -227 273 -415 271 -417 -11 -10 -84 22 -113 49 -19
18 -159 221 -313 452 -258 390 -331 485 -367 485 -7 0 -17 5 -20 10 -11 17
104 12 142 -7z"/>
<path d="M3940 1790 c-685 -15 -927 -22 -990 -29 -58 -6 -48 -7 85 -14 932
-44 3309 -43 4195 2 90 5 119 9 75 10 -38 1 -259 8 -490 17 -481 17 -2339 27
-2875 14z"/>
</g>
</svg>
