<?xml version="1.0" standalone="no"?>
<!DOCTYPE svg PUBLIC "-//W3C//DTD SVG 20010904//EN"
 "http://www.w3.org/TR/2001/REC-SVG-20010904/DTD/svg10.dtd">
<svg version="1.0" xmlns="http://www.w3.org/2000/svg"
 width="1024.000000pt" height="1024.000000pt" viewBox="0 0 1024.000000 1024.000000"
 preserveAspectRatio="xMidYMid meet">

<g transform="translate(0.000000,1024.000000) scale(0.100000,-0.100000)"
fill="#000000" stroke="none">
<path d="M3919 9269 c-169 -14 -306 -76 -419 -189 -136 -136 -190 -289 -190
-545 0 -298 55 -528 194 -811 196 -401 428 -685 943 -1157 390 -357 552 -536
792 -880 54 -78 114 -157 133 -175 l34 -32 -18 -72 c-28 -110 -9 -183 86 -331
51 -79 63 -115 71 -208 4 -50 21 -127 41 -190 39 -121 41 -138 19 -119 -26 22
-189 230 -258 330 -138 201 -184 294 -211 421 -16 77 -14 101 4 53 6 -15 27
-55 47 -89 40 -65 273 -395 280 -395 10 0 -12 52 -84 203 -84 177 -97 236 -70
316 l16 44 -34 41 c-18 23 -74 99 -123 170 -181 258 -273 367 -497 591 -121
122 -263 258 -315 305 -277 244 -562 538 -638 657 -15 23 -29 42 -32 43 -3 0
-21 -51 -39 -112 -19 -62 -38 -117 -42 -122 -9 -10 240 -285 382 -421 52 -50
178 -168 282 -264 284 -263 398 -394 226 -258 -315 248 -557 462 -817 725
-250 253 -348 361 -489 542 -259 333 -387 564 -509 920 -36 106 -43 119 -43
85 -1 -123 53 -385 124 -601 110 -334 273 -620 519 -909 224 -263 539 -590
780 -810 54 -50 105 -103 114 -120 18 -36 20 -126 3 -177 -13 -39 -76 -103
-117 -118 -46 -18 -68 -11 -179 56 -61 36 -378 200 -705 363 -797 398 -1087
558 -1310 723 -132 98 -367 338 -460 470 -41 58 -76 105 -78 104 -7 -7 54
-213 92 -311 131 -334 374 -597 846 -917 411 -279 861 -531 1747 -979 210
-106 381 -195 379 -196 -1 -2 -76 29 -167 68 -90 38 -222 94 -294 124 -71 29
-232 99 -357 154 -126 56 -330 146 -455 201 -330 146 -368 163 -583 271 -470
236 -676 376 -938 637 -75 74 -121 113 -117 100 18 -62 153 -314 212 -397 79
-109 246 -288 348 -371 171 -139 358 -250 800 -475 329 -168 616 -292 1168
-505 174 -68 316 -125 313 -127 -4 -4 -41 6 -426 116 -360 103 -812 258 -1173
402 -261 104 -442 205 -649 362 -72 55 -127 93 -123 85 18 -29 132 -187 181
-248 96 -121 279 -287 414 -377 347 -230 953 -467 1520 -593 300 -67 290 -74
-50 -35 -383 44 -590 80 -910 160 -295 74 -496 152 -687 266 -114 68 -110 66
-93 43 120 -159 238 -273 372 -361 177 -116 362 -185 688 -258 305 -67 730
-121 1105 -140 192 -10 237 -14 243 -19 3 -4 -24 -6 -59 -7 -35 0 -73 -2 -84
-5 -57 -12 -882 -16 -1035 -5 -478 35 -733 96 -1028 245 -67 35 -122 60 -122
56 0 -11 151 -153 225 -211 320 -252 712 -340 1445 -326 151 2 259 1 240 -3
-19 -4 -84 -17 -145 -28 -60 -12 -141 -28 -180 -36 -145 -31 -361 -44 -608
-36 -183 6 -217 0 -137 -24 298 -87 939 -81 1460 13 58 10 106 17 108 16 6 -5
-476 -162 -563 -184 -260 -65 -523 -101 -750 -103 -268 -1 -449 33 -719 136
-66 25 -69 25 -50 5 39 -44 180 -142 263 -183 172 -87 353 -126 580 -126 207
0 341 22 845 141 186 44 340 78 342 76 2 -2 -71 -40 -164 -85 -444 -215 -822
-326 -1177 -347 -118 -7 -177 -13 -183 -19 -7 -8 95 -34 179 -47 117 -17 405
-6 545 20 217 40 466 126 798 272 60 27 111 47 114 45 2 -2 -47 -44 -109 -93
-62 -48 -152 -120 -200 -160 -48 -40 -143 -116 -211 -169 -161 -126 -165 -137
-34 -84 154 61 513 253 630 337 l50 36 -35 -44 c-74 -95 -389 -399 -508 -491
-138 -107 -291 -202 -406 -252 -41 -18 -78 -36 -83 -41 -14 -15 150 6 234 31
195 56 450 223 677 443 31 30 57 51 57 46 0 -4 -7 -16 -15 -25 -8 -9 -53 -99
-100 -199 -46 -101 -107 -226 -135 -278 -29 -52 -50 -97 -47 -99 6 -6 265 283
440 491 14 17 28 27 31 24 18 -18 -109 -364 -167 -456 -45 -71 -142 -178 -222
-243 -41 -35 -73 -65 -71 -67 8 -9 151 59 215 101 99 67 182 146 261 251 39
52 72 95 74 95 3 0 48 -69 102 -152 54 -84 124 -188 156 -232 l58 -78 -43 -28
c-89 -56 -104 -103 -68 -209 10 -31 27 -91 36 -134 14 -64 24 -87 57 -125 67
-78 133 -128 205 -156 37 -15 80 -39 95 -53 26 -25 26 -25 37 -4 7 11 13 38
14 58 l2 38 -60 6 c-86 9 -109 21 -191 101 -60 57 -77 82 -89 122 -21 71 -19
103 10 131 48 49 95 21 56 -34 -36 -50 -28 -82 39 -160 70 -82 107 -110 154
-118 l34 -5 -9 43 c-11 60 -11 129 1 129 5 0 27 -38 49 -84 47 -99 76 -126
137 -126 23 0 46 5 50 11 3 6 17 -7 32 -33 56 -94 111 -140 182 -152 23 -4 59
-15 81 -26 69 -36 269 -72 269 -49 0 7 -22 54 -50 105 l-50 93 29 29 c39 38
51 87 51 203 0 104 9 124 51 117 29 -4 37 -21 44 -91 5 -44 13 -66 36 -91 31
-36 59 -48 80 -36 8 6 42 -19 101 -73 65 -61 96 -98 119 -145 30 -60 33 -62
53 -49 11 8 32 36 46 63 14 27 35 65 48 84 29 45 59 140 67 211 8 69 -7 129
-44 172 -16 17 -31 41 -35 53 -16 53 -96 104 -163 104 -39 0 -53 26 -53 98 0
37 5 96 11 131 16 99 78 281 103 305 13 12 60 41 104 65 45 24 108 67 140 96
55 50 117 144 110 166 -2 5 -50 -27 -107 -71 -91 -71 -201 -140 -201 -125 0 6
54 146 77 197 13 31 24 40 66 54 60 20 164 13 261 -17 98 -30 102 -36 115
-165 13 -125 30 -193 71 -274 30 -59 78 -122 65 -85 -4 11 -11 103 -15 205 -8
215 -22 265 -94 326 -41 35 -41 35 -11 28 17 -4 68 -22 115 -40 88 -33 283
-91 475 -141 91 -23 131 -28 230 -28 114 0 123 1 173 29 103 57 252 239 252
307 0 56 -52 85 -122 66 -24 -6 -29 -2 -56 47 -17 29 -57 91 -89 137 -32 46
-101 151 -153 234 -52 82 -116 181 -141 219 l-46 69 39 35 c44 40 88 120 112
203 39 137 57 346 36 419 -9 31 -7 37 28 80 121 142 197 299 253 514 16 60 27
111 25 113 -2 2 -31 -41 -65 -97 -124 -200 -219 -311 -391 -450 -53 -43 -111
-94 -129 -115 -18 -20 -34 -36 -36 -34 -2 2 -24 33 -50 68 l-47 64 43 36 c106
87 325 304 392 388 158 199 264 475 284 741 l6 87 -62 -119 c-122 -237 -272
-425 -471 -591 -103 -86 -335 -252 -393 -281 l-48 -25 11 23 c7 13 74 84 149
158 278 274 484 536 580 742 116 246 156 499 116 743 l-11 70 -13 -60 c-25
-124 -84 -290 -141 -403 -138 -272 -437 -599 -864 -946 l-61 -50 40 45 c22 25
97 108 167 185 424 465 633 817 717 1208 31 141 30 319 -3 496 -14 74 -33 160
-43 190 l-17 55 -8 -133 c-25 -416 -185 -764 -601 -1299 -75 -96 -108 -132
-75 -80 67 104 213 365 263 471 73 152 154 396 187 558 19 95 23 145 23 318 0
236 -17 347 -84 543 -81 236 -121 316 -107 215 13 -101 18 -477 7 -587 -24
-234 -74 -436 -161 -657 -50 -127 -269 -579 -276 -571 -2 2 32 94 76 204 44
110 91 243 105 294 41 150 75 352 81 478 3 64 7 122 9 128 9 29 -16 339 -36
440 -61 320 -225 735 -386 973 -28 42 -28 39 -2 -36 60 -174 141 -457 164
-575 52 -265 68 -563 45 -800 -21 -204 -121 -715 -189 -959 -12 -41 -21 -86
-22 -100 0 -14 -11 11 -24 55 -13 44 -42 131 -64 193 l-40 114 19 26 c24 33
53 139 81 297 22 128 31 371 16 475 -37 262 -148 504 -360 784 -122 161 -308
346 -432 429 -56 38 -51 31 75 -99 204 -210 346 -408 456 -639 105 -219 137
-364 138 -620 1 -146 -3 -206 -22 -315 -13 -74 -25 -136 -27 -138 -3 -4 -45
85 -45 96 0 3 -27 59 -61 125 -60 118 -60 119 -50 170 6 29 24 144 41 257 17
113 32 213 34 223 6 26 0 21 -25 -20 -13 -21 -59 -93 -102 -161 -91 -140 -70
-138 -150 -18 -22 32 -125 176 -231 319 -249 339 -294 404 -382 550 -41 67
-74 116 -74 109 0 -52 159 -386 270 -567 73 -119 163 -267 379 -625 180 -296
310 -580 384 -835 101 -348 145 -763 116 -1090 -13 -138 -11 -135 -60 -123
-35 9 -40 14 -34 32 13 44 17 454 6 590 -13 149 -47 353 -86 507 -95 374 -323
825 -588 1162 -168 214 -308 429 -405 622 -120 241 -173 447 -173 680 0 113 4
154 20 206 45 145 136 227 293 264 35 8 79 15 98 16 l35 1 -40 9 c-58 12 -176
11 -237 -2 -174 -38 -284 -151 -323 -334 -26 -125 -15 -347 29 -550 40 -190
171 -505 306 -741 65 -114 88 -149 236 -354 98 -136 234 -353 173 -275 -42 52
-181 217 -250 297 l-67 76 -22 -23 -22 -23 142 -172 c184 -222 329 -415 364
-482 l27 -53 -47 50 c-26 28 -92 102 -148 165 -185 212 -509 524 -830 803
-102 88 -268 217 -306 237 -14 7 49 -65 140 -161 197 -208 304 -329 554 -629
104 -124 236 -278 295 -343 58 -65 119 -139 134 -165 25 -42 28 -54 24 -112
-3 -45 -12 -79 -27 -106 l-23 -40 30 -45 c48 -70 150 -285 140 -296 -2 -1 -33
46 -70 105 -38 59 -83 128 -101 153 -32 45 -33 46 -60 32 -24 -13 -30 -12 -52
2 -13 8 -120 111 -237 228 -196 196 -453 422 -479 422 -6 0 -15 -7 -21 -16 -9
-14 20 -49 165 -200 247 -258 368 -407 193 -238 -385 371 -663 599 -940 769
-122 75 -420 218 -432 207 -1 -2 48 -32 110 -68 192 -110 372 -244 622 -463
159 -138 527 -499 516 -505 -6 -4 12 -32 41 -66 132 -155 393 -502 439 -585
36 -64 33 -61 -91 85 -104 122 -404 426 -490 495 -64 53 -68 58 115 -175 150
-191 291 -398 340 -498 19 -39 27 -61 18 -47 -259 362 -470 614 -656 781 -309
278 -632 500 -903 622 -79 36 -160 67 -173 67 -3 0 48 -31 114 -68 360 -203
611 -397 900 -693 283 -290 447 -500 544 -699 36 -73 30 -67 -77 80 -140 193
-213 279 -416 493 -213 223 -435 420 -566 500 l-45 28 30 -27 c326 -290 615
-623 850 -979 81 -122 233 -409 191 -360 -14 17 -26 34 -26 38 0 5 -5 5 -12 1
-6 -4 -8 -3 -5 3 10 16 -178 276 -216 300 -12 7 43 -68 56 -78 5 -3 8 -8 6
-10 -1 -2 10 -24 25 -47 57 -90 139 -243 133 -248 -3 -3 -13 8 -22 25 -9 18
-20 29 -26 26 -5 -4 -9 -3 -8 2 4 21 -2 34 -13 27 -7 -4 -8 -3 -4 4 8 13 -114
194 -218 321 -76 94 -195 226 -180 201 16 -29 127 -186 194 -275 85 -113 210
-299 204 -304 -2 -3 -14 5 -27 16 -12 11 -49 37 -82 58 -84 52 -108 77 -178
180 -96 143 -195 235 -251 235 -14 0 -47 42 -186 240 -139 196 -273 344 -650
720 -208 206 -413 418 -457 470 -328 391 -570 855 -639 1225 -26 139 -27 422
-1 515 30 109 72 186 139 257 105 109 230 171 398 198 85 13 84 14 -20 19 -14
1 -59 -1 -101 -5z m2294 -3292 c65 -66 154 -170 199 -231 93 -127 70 -111 -75
54 -56 63 -149 167 -207 230 -135 147 -77 110 83 -53z m-666 -579 c21 -28 61
-90 88 -137 60 -102 112 -145 229 -191 112 -45 208 -94 294 -152 39 -27 81
-52 92 -56 19 -7 19 -9 -10 -41 l-30 -33 -53 48 c-90 81 -221 161 -248 152 -4
-2 17 -22 49 -45 31 -23 100 -79 152 -123 108 -93 173 -132 351 -211 218 -97
331 -189 425 -349 67 -112 88 -192 89 -325 0 -90 -4 -123 -25 -185 l-24 -75
-7 145 c-10 219 -56 360 -155 481 -91 112 -161 156 -494 312 -276 130 -687
513 -756 704 -12 35 -20 133 -10 133 2 0 22 -23 43 -52z m621 -73 c-3 -3 -9 2
-12 12 -6 14 -5 15 5 6 7 -7 10 -15 7 -18z m976 -430 c301 -53 640 -242 807
-452 128 -162 210 -386 213 -587 l1 -109 -39 -11 c-22 -6 -41 -16 -43 -22 -2
-7 16 -22 41 -34 55 -26 81 -58 176 -215 40 -66 119 -188 176 -270 103 -151
184 -293 184 -321 0 -9 6 -13 13 -11 47 20 118 40 123 35 9 -9 -11 -41 -65
-105 -49 -58 -131 -116 -185 -129 l-29 -7 29 54 c29 53 54 73 107 84 16 3 27
12 27 21 0 23 -61 12 -97 -16 -26 -20 -28 -20 -34 -3 -4 10 -8 33 -8 51 -1 29
-4 32 -24 27 -20 -5 -29 2 -59 47 -19 29 -74 130 -121 223 -48 94 -105 192
-129 219 -23 27 -85 77 -138 111 -99 64 -137 101 -197 191 -30 44 -34 56 -23
69 16 20 29 19 97 -5 31 -11 58 -18 60 -16 2 2 -18 22 -44 45 -45 39 -102 71
-184 104 -25 10 -60 44 -113 111 -101 125 -211 213 -352 281 -102 49 -111 56
-130 96 -26 60 -88 154 -141 217 -121 142 -338 252 -506 255 l-69 2 41 18
c159 69 414 90 635 52z m-1400 -154 c79 -95 186 -189 269 -239 31 -19 117 -60
192 -92 220 -95 301 -148 418 -273 61 -66 85 -112 103 -200 30 -141 -27 -296
-125 -347 -60 -30 -176 -28 -283 7 l-83 26 41 8 c23 4 69 21 102 38 33 17 92
39 130 50 38 10 79 24 91 30 20 11 29 30 14 32 -5 0 -30 3 -58 5 -27 3 -51 7
-53 9 -2 2 21 18 52 36 65 36 116 83 116 106 0 30 -42 83 -87 109 l-44 27 -77
-18 c-42 -10 -115 -34 -162 -54 -76 -31 -95 -35 -175 -36 -49 0 -108 4 -129 9
-52 12 -41 -6 25 -39 120 -61 221 -66 400 -18 67 18 108 24 133 19 20 -4 36
-10 36 -14 0 -4 -20 -18 -45 -31 -54 -29 -96 -74 -130 -141 -36 -70 -63 -85
-155 -85 -65 1 -83 5 -136 33 -80 44 -176 122 -212 175 -31 44 -75 127 -68
127 2 0 23 -7 46 -15 24 -8 45 -14 47 -12 2 2 -14 15 -34 29 -88 59 -153 158
-153 232 l0 24 63 -23 c34 -13 87 -35 118 -49 61 -27 132 -41 249 -51 41 -3
139 -15 217 -27 79 -12 146 -18 150 -15 9 10 -35 55 -83 83 -105 62 -189 74
-395 59 -113 -8 -117 -7 -174 19 -46 21 -55 23 -43 9 46 -54 35 -52 -45 6 -61
45 -106 132 -114 221 -5 51 -3 61 7 55 7 -4 46 -32 87 -61 77 -55 196 -107
273 -119 l45 -6 -62 30 c-67 32 -192 114 -261 169 -85 70 -135 163 -145 274
l-4 48 20 -28 c11 -15 53 -65 91 -111z m859 9 c147 -36 336 -150 458 -277 64
-67 64 -67 44 -139 -5 -14 2 -31 20 -52 35 -42 44 -92 17 -92 -33 0 -98 56
-160 137 -130 171 -318 306 -510 368 -64 21 -82 31 -80 43 8 43 69 46 211 12z
m1760 -408 c37 -92 33 -201 -9 -252 -14 -16 -45 -43 -70 -59 l-44 -30 0 42 c0
23 9 66 20 95 13 35 20 76 20 126 0 69 2 76 26 95 36 28 39 27 57 -17z m-2774
-313 c-132 -87 -167 -125 -208 -224 -88 -211 -79 -519 23 -850 41 -130 -24
-26 -90 147 -118 304 -108 594 27 820 50 84 117 157 234 251 l90 73 20 -70 20
-71 -116 -76z m2751 -113 c-11 -35 -36 -86 -55 -112 l-35 -49 0 113 0 112 33
0 c18 0 42 6 53 14 28 22 30 -1 4 -78z m-2576 36 c39 -77 106 -159 177 -215
l65 -52 -75 3 c-42 2 -103 -1 -136 -8 -33 -6 -67 -12 -75 -13 -12 -2 -16 14
-20 73 l-5 75 -34 -45 c-46 -62 -81 -140 -84 -189 -2 -36 -4 -39 -15 -24 -22
30 -25 61 -12 126 16 86 69 191 130 260 28 31 53 57 56 57 2 0 15 -22 28 -48z
m680 -597 c68 -55 131 -108 141 -119 19 -18 19 -18 -5 -11 -46 13 -149 64
-196 95 -97 67 -175 161 -199 240 -6 19 7 11 65 -40 40 -36 127 -110 194 -165z
m1012 214 c75 -14 188 -66 267 -123 63 -45 134 -112 126 -120 -12 -12 -296
-34 -369 -30 -144 10 -213 36 -250 96 -24 39 -25 69 -6 107 19 35 37 50 83 67
47 16 73 17 149 3z m713 -220 c30 -55 -18 -110 -60 -68 -22 22 -25 69 -7 87
19 19 51 10 67 -19z m-3034 -217 c14 -20 37 -75 51 -122 94 -316 210 -580 350
-797 92 -143 262 -361 367 -469 53 -56 97 -104 97 -107 0 -3 -32 9 -70 26 -63
28 -85 46 -203 171 -273 288 -417 522 -550 892 -51 141 -123 436 -111 455 9
15 42 -8 69 -49z m860 -183 c-16 -148 -37 -255 -61 -299 l-13 -25 -1 25 c0 14
-3 57 -6 95 -11 126 24 283 73 337 9 10 18 17 20 15 2 -2 -4 -69 -12 -148z
m-345 -19 c35 -19 68 -93 115 -254 53 -186 73 -236 193 -492 95 -203 134 -267
237 -391 53 -63 62 -79 49 -86 -33 -19 -89 42 -224 243 -42 63 -87 134 -99
158 -12 23 -24 42 -27 42 -3 0 -3 -4 0 -9 7 -10 28 -65 27 -69 -1 -1 6 -17 14
-35 l16 -32 -26 30 c-139 161 -293 477 -340 700 -15 72 -20 187 -8 198 10 10
52 8 73 -3z m1755 -41 c48 -14 47 -14 -80 -33 -126 -19 -202 -42 -214 -64 -21
-40 -202 -536 -231 -632 -53 -178 -51 -281 7 -350 21 -26 32 -30 75 -30 27 0
58 -5 69 -10 22 -12 49 -61 49 -90 0 -11 4 -20 9 -20 5 0 23 -12 40 -26 27
-22 31 -32 31 -75 0 -65 -20 -145 -31 -127 -5 7 -9 41 -9 75 0 34 -4 73 -9 86
-11 28 -56 47 -112 47 -49 0 -51 17 -3 26 73 13 45 68 -39 78 -57 6 -131 60
-152 109 l-12 29 -6 -31 c-7 -33 -37 -44 -37 -13 0 45 22 207 41 299 31 156
75 279 186 516 30 65 53 121 50 124 -3 3 -57 -44 -119 -104 -117 -113 -172
-148 -189 -122 -15 23 -12 28 64 100 77 75 70 77 -45 12 -32 -17 -58 -28 -58
-22 0 19 80 88 150 129 163 95 274 129 430 129 58 1 123 -4 145 -10z m626 -58
c139 -31 318 -112 341 -155 20 -37 -62 -9 -247 84 -99 49 -171 88 -160 85 11
-2 41 -9 66 -14z m-1389 -114 c-26 -59 -70 -106 -161 -175 -158 -119 -413
-220 -467 -184 -14 9 -44 67 -44 84 0 9 14 15 38 16 66 5 166 22 217 39 128
41 282 141 390 253 47 48 57 35 27 -33z m16 -303 c27 -19 29 -71 7 -241 -18
-134 -31 -191 -56 -248 l-18 -40 -1 105 c-1 102 -7 161 -30 303 -14 81 -8 115
23 127 33 13 50 12 75 -6z m-183 -81 c4 -38 9 -77 12 -88 4 -13 -20 4 -63 45
-38 35 -70 65 -72 66 -3 1 100 42 110 43 3 1 9 -29 13 -66z m-64 -129 c93 -97
102 -119 103 -236 1 -74 -3 -101 -14 -112 -8 -8 -58 -26 -109 -40 -85 -23 -97
-24 -117 -11 -26 17 -100 126 -143 212 -41 81 -85 214 -74 223 4 5 53 20 107
34 55 15 102 28 104 31 12 11 84 -40 143 -101z m-843 -370 c12 -8 22 -23 22
-32 0 -12 -3 -13 -12 -4 -20 20 -35 14 -57 -20 -42 -66 -40 -65 -51 -48 -15
24 -12 82 7 102 20 22 61 23 91 2z m1114 -50 c10 -18 15 -39 12 -49 -6 -14
-10 -11 -22 16 l-15 34 -14 -37 c-9 -20 -21 -39 -29 -42 -19 -7 -44 21 -44 51
0 66 78 85 112 27z m-179 -4 c-3 -11 2 -38 11 -60 9 -22 16 -64 16 -93 -1 -49
-2 -51 -16 -32 -8 11 -19 19 -24 18 -5 -2 -7 3 -4 10 2 7 -3 21 -12 32 -8 11
-12 13 -8 5 4 -9 3 -12 -2 -7 -5 5 -9 16 -9 25 0 9 -5 16 -12 15 -7 -2 -10 4
-7 12 4 10 -5 20 -27 29 -37 16 -35 17 38 36 23 6 45 15 48 20 10 16 14 11 8
-10z m351 -55 c10 -11 15 -34 15 -71 -1 -46 4 -64 32 -107 40 -62 100 -180 94
-185 -8 -9 -67 42 -111 96 -26 31 -51 56 -56 54 -5 -1 -7 1 -4 6 10 17 -24
104 -54 138 -24 28 -28 39 -20 54 17 32 78 41 104 15z m-1122 -32 c25 -22 23
-38 -9 -63 l-28 -22 -29 33 -29 33 23 18 c28 22 48 23 72 1z m658 -33 c22 -22
26 -55 8 -66 -6 -4 -8 -3 -4 4 13 21 -77 32 -111 14 -31 -17 -35 -15 -31 15 6
50 99 72 138 33z m-226 -6 c9 -8 16 -23 16 -32 0 -12 -3 -13 -12 -4 -19 19
-35 14 -48 -17 -15 -36 -34 -45 -55 -25 -28 28 -17 66 25 83 36 14 57 13 74
-5z m-250 -46 c2 -7 9 -32 15 -55 6 -23 27 -65 46 -94 39 -56 39 -68 1 -51
-17 7 -38 39 -66 96 -22 47 -40 92 -40 100 0 19 39 22 44 4z m461 -7 c3 -5 2
-12 -3 -15 -5 -3 -9 1 -9 9 0 17 3 19 12 6z m675 -10 c14 -27 15 -303 1 -327
-8 -15 -11 -7 -11 41 0 38 -10 86 -26 130 -46 127 -49 142 -35 159 18 22 58
20 71 -3z m-583 -23 c47 -52 58 -117 33 -192 -17 -54 -31 -33 -38 56 -5 79
-15 109 -35 104 -6 -1 -8 -1 -4 2 4 2 2 11 -4 19 -10 12 -10 16 2 24 20 13 23
12 46 -13z m-727 -10 c0 -13 3 -47 7 -77 8 -66 -3 -63 -47 15 -36 63 -34 84
10 84 24 0 30 -4 30 -22z m620 7 l30 -15 -20 -33 c-11 -17 -20 -39 -20 -48 0
-24 87 -209 118 -249 l27 -35 -35 25 c-59 41 -99 100 -114 165 -4 17 -23 56
-42 88 -40 64 -40 86 -4 104 31 16 25 16 60 -2z m421 -60 c7 -13 1 -10 -15 8
-14 15 -26 33 -26 40 1 13 26 -16 41 -48z m-631 25 c23 -23 24 -27 9 -69 -10
-27 -7 -39 16 -87 15 -30 42 -75 61 -100 31 -40 32 -44 14 -44 -12 0 -43 21
-70 46 -40 38 -53 59 -74 122 -30 89 -32 115 -10 136 20 21 30 20 54 -4z m140
-170 c13 -53 46 -106 105 -164 40 -40 36 -46 -13 -16 -20 12 -30 25 -26 32 4
6 3 8 -3 5 -17 -10 -82 64 -93 104 -10 38 -3 102 10 94 4 -3 13 -27 20 -55z"/>
<path d="M7655 4258 c102 -88 169 -155 241 -241 41 -48 74 -85 74 -81 0 27
-82 152 -133 202 -77 76 -97 91 -172 132 l-60 32 50 -44z"/>
<path d="M8035 3777 c-10 -36 3 -106 16 -86 11 17 11 67 -1 94 -7 18 -8 18
-15 -8z"/>
<path d="M8187 3457 c26 -34 56 -74 66 -87 10 -14 6 -2 -9 26 -29 58 -80 124
-95 124 -5 0 12 -28 38 -63z"/>
<path d="M1686 8888 c35 -328 205 -773 415 -1084 75 -112 246 -337 359 -474
128 -155 614 -642 812 -814 81 -71 145 -133 141 -139 -3 -6 -1 -7 5 -3 9 5 76
-46 127 -96 18 -18 -137 85 -321 214 -100 69 -276 189 -390 265 -692 458
-1102 822 -1304 1155 -57 93 -137 252 -175 348 l-26 65 6 -75 c18 -244 146
-619 275 -811 143 -211 394 -451 790 -755 348 -267 947 -651 1385 -889 99 -54
184 -101 189 -106 6 -5 25 -9 44 -9 66 0 114 80 98 164 -8 41 -46 82 -246 263
-179 162 -355 341 -615 628 -110 121 -317 339 -460 485 -484 494 -743 839
-921 1228 -55 118 -129 307 -159 405 -15 48 -29 87 -31 87 -2 0 -1 -24 2 -52z"/>
<path d="M4790 7534 c411 -218 635 -401 1312 -1073 l338 -335 30 29 c60 58 65
150 12 226 -49 72 -303 340 -314 332 -6 -3 -8 -1 -5 5 7 10 -198 213 -234 233
-13 6 -21 2 -33 -16 -15 -23 -15 -25 10 -42 32 -20 259 -273 323 -359 25 -32
56 -72 70 -89 15 -16 -39 33 -119 110 -574 553 -978 846 -1380 1002 -164 64
-166 60 -10 -23z"/>
<path d="M4150 2834 c-131 -68 -315 -127 -442 -140 -88 -9 -103 -19 -48 -34
100 -27 202 -39 333 -40 124 0 137 2 137 18 0 9 16 62 34 117 19 55 33 101 32
102 0 0 -21 -10 -46 -23z"/>
</g>
</svg>
