<svg viewBox="0 0 127 44" xmlns="http://www.w3.org/2000/svg"> <path d="M100.108 0.816822C99.1818 1.04849 97.1324 1.52966 95.5642 1.90389C87.5092 3.7929 81.9491 5.771 76.1039 8.854L73.1991 10.3688H45.0957H16.9744L13.2321 12.9706C11.1827 14.3963 8.38482 16.3031 7.04826 17.1941C5.69388 18.103 4.58899 18.8871 4.58899 18.9584C4.58899 19.0297 8.33136 19.0831 12.9113 19.101C20.7525 19.101 26.669 19.2257 40.3197 19.6356C43.4562 19.7247 46.6996 19.8138 47.5371 19.8316L49.0519 19.8673L47.7153 19.992C45.3986 20.2415 10.3629 20.7583 5.12361 20.6157C0.294177 20.5088 0.240715 20.5088 0.668414 20.8296C0.917905 21.0256 2.27229 21.9701 3.69795 22.9324C5.12361 23.8948 8.20661 26.0689 10.559 27.7441C12.9113 29.4192 14.9429 30.8627 15.0854 30.934C15.228 31.0231 28.2194 31.1122 43.9551 31.13L72.5754 31.1656L74.5356 32.4844C79.8641 36.0664 90.414 40.4859 98.7541 42.6244C100.625 43.1056 102.158 43.4798 102.194 43.4442C102.229 43.4085 101.712 42.9452 101.053 42.4106C100.394 41.876 98.5937 40.3255 97.079 38.989C95.5642 37.6346 92.9267 35.4426 91.2516 34.1061L88.1686 31.6646L88.9349 31.6112C89.3447 31.5755 91.5723 31.6468 93.8712 31.7537C102.675 32.1814 102.728 32.1814 102.425 31.8785C102.14 31.6112 101.035 30.8449 92.7129 25.2491C89.9685 23.4136 87.5627 21.7563 87.3666 21.5781C87.028 21.2395 87.4023 21.2395 103.174 21.2395C119.961 21.2395 120.335 21.2573 122.082 22.0058C123.062 22.4156 123.169 22.3978 125.592 21.2929L126.929 20.687L124.915 19.796C123.044 18.9762 122.866 18.9406 122.42 19.1722C122.153 19.3148 121.422 19.5999 120.781 19.8316L119.622 20.2593L102.532 20.3128C87.5805 20.3484 85.4776 20.3306 85.6558 20.0989C85.7806 19.9564 86.6894 19.2792 87.6874 18.602C89.6477 17.2654 91.7684 15.7863 98.0591 11.3846C100.269 9.83415 103.174 7.87386 104.528 7.03628C106.203 6.00267 106.809 5.53933 106.435 5.5928C106.15 5.64626 101.944 6.60858 97.1146 7.74911C92.2852 8.90747 88.2398 9.83415 88.1151 9.83415C87.8478 9.81633 88.3111 9.45991 91.6258 7.19667C97.4888 3.16917 99.6273 1.77914 100.91 1.17324C102.871 0.246555 102.728 0.193092 100.108 0.816822Z" fill="white"/> </svg>
